<?xml version="1.0" standalone="no"?><!DOCTYPE svg PUBLIC "-//W3C//DTD SVG 1.1//EN" "http://www.w3.org/Graphics/SVG/1.1/DTD/svg11.dtd">
<svg t="1598973646633" class="icon" viewBox="0 0 1186 1024" version="1.1" xmlns="http://www.w3.org/2000/svg" p-id="3720"
     width="231.640625" height="200"><defs><style type="text/css"></style></defs><path d="M1007.779797 922.690438H772.412642c-35.206179 0-73.111577 93.076482-112.808696 93.076482h-28.155636V95.007819h16.707229c30.878123 0 67.99237-69.807362 96.473773-71.738698a754.943347 754.943347 0 0 1 263.150485 25.200457 135.705511 135.705511 0 0 1 134.542055 136.845698v600.552733a135.705511 135.705511 0 0 1-134.542055 136.822429z" fill="#FECC0D" p-id="3721"></path><path d="M1047.12788 930.764822H744.629312c0.767881 8.074385-16.288384 97.474346-129.748616 93.076483-64.711424-1.419416-124.88537-77.905016-126.21171-93.076483H139.632178a135.19359 135.19359 0 0 1-139.614723-137.287811V146.59546C0.017455 68.038909 59.865633 23.269121 139.492563 23.269121c0 0 419.681858 1.628838 418.983785 0 8.167461 19.05741 23.269121 62.244897 65.432767 63.594506 26.317375 0 89.679191-11.192447 90.098035-41.512111A71.599084 71.599084 0 0 1 712.983308 23.269121h324.13885C1116.749088 23.269121 1186.742603 68.038909 1186.742603 146.59546v646.881551a134.518786 134.518786 0 0 1-139.614723 137.287811z m69.807361-714.362001C1116.935241 137.84627 1056.947449 93.076482 977.320518 93.076482H744.629312c3.071524 16.125501-29.481976 63.594506-120.720197 63.594507C530.250905 156.670989 513.334254 93.262635 511.938107 93.076482c1.745184 0.232691-302.498567 0-302.498567 0-79.626931 0-139.614723 44.769788-139.614724 123.326339v507.266828A135.19359 135.19359 0 0 0 209.43954 860.957461s294.447452-1.721915 325.767687 0c26.480259 1.698646-10.191875 94.519168 93.076483 93.076482 54.007629-0.744612 72.995231-27.690253 69.807361-93.076482 0-0.488652 46.538241 1.628838 46.538241 0h232.691206a135.263398 135.263398 0 0 0 139.614723-137.287812V216.402821z" fill="#4B3430" p-id="3722"></path><path d="M674.821951 395.57505m34.903681 0l279.229446 0q34.903681 0 34.903681 34.90368l0 0q0 34.903681-34.903681 34.903681l-279.229446 0q-34.903681 0-34.903681-34.903681l0 0q0-34.903681 34.903681-34.90368Z" fill="#4B3430" p-id="3723"></path><path d="M674.821951 558.458893m34.903681 0l325.767687 0q34.903681 0 34.903681 34.903681l0 0q0 34.903681-34.903681 34.903681l-325.767687 0q-34.903681 0-34.903681-34.903681l0 0q0-34.903681 34.903681-34.903681Z" fill="#4B3430" p-id="3724"></path><path d="M460.141044 624.682811l-97.916459-53.705131-95.170703 58.963952 17.940492-115.275223-82.326149-77.718863 108.992561-17.544917 44.211329-107.037955 49.423612 104.431813 109.713904 11.634561-78.370398 82.093457z" fill="#FFC000" p-id="3725"></path><path d="M443.433816 515.69025q85.071905 229.41026-95.403394 71.575815-182.173945 155.530802-94.379553-72.785809-197.787525-133.262253 36.835017-116.578294 60.0576-237.903489 117.346175 0.744611 234.785426-13.75205 35.601755 117.043677z m-72.343696-75.624642q-21.43086-89.772267-43.862292-0.279229-87.701315-6.282663-13.798589 43.839023-32.786191 85.886324 35.345794 27.364485 67.48045 59.382796 35.648293-26.922372 74.437917-49.167652-13.333206-44.001907z" fill="#4B3430" p-id="3726"></path></svg>