<?xml version="1.0" standalone="no"?><!DOCTYPE svg PUBLIC "-//W3C//DTD SVG 1.1//EN" "http://www.w3.org/Graphics/SVG/1.1/DTD/svg11.dtd">
<svg t="1598973925586" class="icon" viewBox="0 0 1024 1024" version="1.1" xmlns="http://www.w3.org/2000/svg"
     p-id="31101"
     width="200" height="200"><defs><style type="text/css"></style></defs><path d="M799.744 251.904a113.664 113.664 0 0 1 112.64-112.64 56.7296 56.7296 0 0 1 18.432 2.048 110.1824 110.1824 0 0 0-100.352-61.44 113.664 113.664 0 0 0-112.64 112.64 112.2304 112.2304 0 0 0 94.208 110.592 111.0016 111.0016 0 0 1-12.288-51.2zM799.744 610.304a110.1824 110.1824 0 0 1 110.592-110.592h4.096a45.056 45.056 0 0 1 16.384 2.048 109.3632 109.3632 0 0 0-98.304-61.44h-4.096a110.1824 110.1824 0 0 0-110.592 110.592v387.072a22.7328 22.7328 0 0 0 22.528 22.528h59.392z" fill="#FFCFAE" p-id="31102"></path><path d="M819.2 329.728A145.408 145.408 0 1 1 963.584 184.32 146.0224 146.0224 0 0 1 819.2 329.728z m0-225.28a79.872 79.872 0 0 0 0 159.744A78.6432 78.6432 0 0 0 898.048 184.32 79.872 79.872 0 0 0 819.2 104.448zM908.288 985.088h-182.272a55.0912 55.0912 0 0 1-55.296-55.296V542.72a143.36 143.36 0 0 1 143.36-143.36H819.2a143.36 143.36 0 0 1 143.36 143.36v387.072a52.224 52.224 0 0 1-54.272 55.296z m-169.984-65.536h159.744V544.768a77.824 77.824 0 0 0-77.824-77.824h-4.096a77.824 77.824 0 0 0-77.824 77.824z" fill="#FF6600" p-id="31103"></path><path d="M185.344 251.904a113.664 113.664 0 0 1 112.64-112.64 56.7296 56.7296 0 0 1 18.432 2.048 110.1824 110.1824 0 0 0-100.352-61.44 113.664 113.664 0 0 0-112.64 112.64 112.2304 112.2304 0 0 0 94.208 110.592 111.0016 111.0016 0 0 1-12.288-51.2zM185.344 610.304a110.1824 110.1824 0 0 1 110.592-110.592h4.096a45.056 45.056 0 0 1 16.384 2.048 109.3632 109.3632 0 0 0-98.304-61.44h-4.096a110.1824 110.1824 0 0 0-110.592 110.592v387.072a22.7328 22.7328 0 0 0 22.528 22.528h59.392z" fill="#FFCFAE" p-id="31104"></path><path d="M207.872 329.728a145.408 145.408 0 1 1 145.408-145.408 146.0224 146.0224 0 0 1-145.408 145.408z m0-225.28a79.872 79.872 0 1 0 0 159.744 78.6432 78.6432 0 0 0 79.872-79.872 78.6432 78.6432 0 0 0-79.872-79.872zM297.984 985.088h-182.272A55.0912 55.0912 0 0 1 61.44 929.792V542.72a143.36 143.36 0 0 1 143.36-143.36h4.096a143.36 143.36 0 0 1 143.36 143.36v387.072a52.224 52.224 0 0 1-54.272 55.296z m-169.984-65.536h159.744V544.768a77.824 77.824 0 0 0-77.824-77.824h-4.096a77.824 77.824 0 0 0-77.824 77.824z" fill="#FF6600" p-id="31105"></path><path d="M496.64 698.368l-188.416-90.112a33.9968 33.9968 0 0 1-12.288-47.104 33.9968 33.9968 0 0 1 47.104-12.288L532.48 638.976a33.9968 33.9968 0 0 1 12.288 47.104 33.9968 33.9968 0 0 1-48.128 12.288z" fill="#FF6600" p-id="31106"></path><path d="M529.408 698.368l188.416-90.112a33.9968 33.9968 0 0 0 12.288-47.104 33.9968 33.9968 0 0 0-47.104-12.288l-186.368 90.112a33.9968 33.9968 0 0 0-12.288 47.104 31.744 31.744 0 0 0 45.056 12.288z" fill="#FF6600" p-id="31107"></path></svg>