<?xml version="1.0" standalone="no"?><!DOCTYPE svg PUBLIC "-//W3C//DTD SVG 1.1//EN" "http://www.w3.org/Graphics/SVG/1.1/DTD/svg11.dtd">
<svg t="1598973831078" class="icon" viewBox="0 0 1024 1024" version="1.1" xmlns="http://www.w3.org/2000/svg"
     p-id="24194"
     width="200" height="200"><defs><style type="text/css"></style></defs><path d="M274.7 99h536v844h-536z" fill="#FFF576" p-id="24195"></path><path d="M703.4 99h101.2v844H703.4z" fill="#FCDF35" p-id="24196"></path><path d="M375.7 954.9h-11c-4.8 0-9.4-2.1-12.6-5.7-3.2-3.6-4.7-8.4-4.1-13.2l30.1-244.5c0.5-3.9 2.3-7.4 5.1-10.1l88.4-84.1c2.2-2.1 5-3.6 8.1-4.3 1-0.2 6.4-1.3 15.2-1.3 17.1 0 51.7 4.2 91.8 32.2 64.6 45.1 68 92.9 68.1 95 0.2 2.7-0.4 5.5-1.5 8l-48.4 104.4c-1.5 3.3-4.1 6-7.4 7.8L383.6 952.9c-2.4 1.3-5.2 2-7.9 2z m285.1-283.3c-5.6 0-10.9-2.8-14-7.5-0.3-0.4-18-26.4-48.8-47.9-31.5-21.9-62.6-32-63-32.1-2.9-0.9-5.5-2.6-7.5-4.9-2-2.3-8.6-11.1-7.7-28.1 1-18.4 10.3-40.5 27.8-65.8 45.7-65.9 100.7-131.6 150.7-180.2 59.8-58.1 107.2-87.6 140.9-87.6 10.6 0 20 2.8 27.9 8.3 19.4 13.5 27.6 37.1 24.3 70.1-2.5 25.7-12.1 58-28.6 96.1-27.3 63.4-74 143.9-131.7 226.9-33.1 47.6-65.2 52.1-68.7 52.5-0.4 0.2-1 0.2-1.6 0.2z" fill="#FFFFFF" p-id="24197"></path><path d="M375.7 954.9h-11c-4.8 0-9.4-2.1-12.6-5.7-3.2-3.6-4.7-8.4-4.1-13.2l30.1-244.5c0.5-3.9 2.3-7.4 5.1-10.1l88.4-84.1c2.2-2.1 5-3.6 8.1-4.3 1-0.2 6.4-1.3 15.2-1.3 17.1 0 51.7 4.2 91.8 32.2 64.6 45.1 68 92.9 68.1 95 0.2 2.7-0.4 5.5-1.5 8l-48.4 104.4c-1.5 3.3-4.1 6-7.4 7.8L383.6 952.9c-2.4 1.3-5.2 2-7.9 2z m35-253.3l-26.2 212.8 192.1-102.2 43.9-94.6c-2.2-9.7-12-37.2-53.2-66-32.6-22.8-59.4-26.2-72.5-26.2-1.6 0-3 0.1-4.1 0.1l-80 76.1z m85.1 100.7c-9.8 0-19.2-2.9-27.3-8.4-22.3-15.1-28.1-45.5-13.1-67.7 9.1-13.4 24.2-21.4 40.4-21.4 9.8 0 19.2 2.9 27.3 8.4 22.2 15.1 28.1 45.5 13 67.7-9 13.3-24.1 21.4-40.3 21.4z m0.1-64c-5 0-9.7 2.5-12.6 6.7-4.7 6.9-2.8 16.4 4.1 21.1 2.5 1.7 5.4 2.6 8.4 2.6 5 0 9.7-2.5 12.5-6.6 4.7-7 2.9-16.4-4-21.1-2.5-1.8-5.4-2.7-8.4-2.7z m164.9-66.7c-5.6 0-10.9-2.8-14-7.5-0.3-0.4-18-26.4-48.8-47.9-31.5-21.9-62.6-32-63-32.1-2.9-0.9-5.5-2.6-7.5-4.9-2-2.3-8.6-11.1-7.7-28.1 1-18.4 10.3-40.5 27.8-65.8 45.7-65.9 100.7-131.6 150.7-180.2 59.8-58.1 107.2-87.6 140.9-87.6 10.6 0 20 2.8 27.9 8.3 19.4 13.5 27.6 37.1 24.3 70.1-2.5 25.7-12.1 58-28.6 96.1-27.3 63.4-74 143.9-131.7 226.9-33.1 47.6-65.2 52.1-68.7 52.5-0.4 0.2-1 0.2-1.6 0.2zM553.3 555.1c12.6 4.8 37.9 15.6 63.9 33.7 23.7 16.5 40.5 35 49.7 46.3 8.3-4.2 21.8-13.8 36.6-35.1C840.8 402.2 880 276 847.8 253.5c-2.2-1.5-5-2.2-8.6-2.2-11.2 0-45 7.6-117.4 78.1-48.6 47.2-101.9 111.1-146.5 175.3-18.5 26.5-22.2 43-22 50.4z m0 0" fill="#666666" p-id="24198"></path><path d="M822.3 959.6h-657c-35 0-63.4-28.3-63.4-63.2V109.9c0-25.1 20.4-45.4 45.5-45.4h639.2c29 0 52.5 23.5 52.5 52.4v59.3c0 9.2-6.9 17.5-16.1 17.9-9.6 0.4-17.6-7.2-17.6-16.8v-43.6c0-19.7-16-35.6-35.7-35.6H164.3c-15.8 0-28.7 12.8-28.7 28.6v752.9c0 25.7 20.8 46.5 46.6 46.5h591.3c17.7 0 32-14.3 32-31.9V638.6c0-7.4 4.4-14.4 11.5-16.6 11.6-3.6 22.1 5 22.1 16v305c0.1 9-7.5 16.6-16.8 16.6z m0 0" fill="#666666" p-id="24199"></path></svg>