<?xml version="1.0" standalone="no"?><!DOCTYPE svg PUBLIC "-//W3C//DTD SVG 1.1//EN" "http://www.w3.org/Graphics/SVG/1.1/DTD/svg11.dtd">
<svg t="1623722946170" class="icon" viewBox="0 0 1055 1024" version="1.1" xmlns="http://www.w3.org/2000/svg"
     p-id="10516"
     width="206.0546875" height="200"><defs><style type="text/css"></style></defs><path d="M961.939394 1014.690909H93.090909c-46.545455 0-86.884848-37.236364-86.884848-86.884848v-248.242425c0-46.545455 37.236364-86.884848 86.884848-86.884848h214.109091l6.206061 12.412121c31.030303 65.163636 117.915152 111.709091 214.109091 111.709091s183.078788-43.442424 214.10909-111.709091l6.206061-12.412121H961.939394c46.545455 0 86.884848 37.236364 86.884848 86.884848v248.242425c0 49.648485-40.339394 86.884848-86.884848 86.884848z m-868.848485-372.363636c-21.721212 0-37.236364 18.618182-37.236364 37.236363v248.242425c0 21.721212 18.618182 37.236364 37.236364 37.236363h868.848485c21.721212 0 37.236364-18.618182 37.236364-37.236363v-248.242425c0-21.721212-18.618182-37.236364-37.236364-37.236363h-186.181818c-43.442424 74.472727-139.636364 124.121212-248.242424 124.121212s-204.8-49.648485-248.242425-124.121212H93.090909z" p-id="10517"></path><path d="M999.175758 713.69697v223.418182c0 18.618182-12.412121 31.030303-31.030303 31.030303H83.781818c-18.618182 0-31.030303-12.412121-31.030303-31.030303V713.69697h207.90303c37.236364 74.472727 142.739394 117.915152 266.860607 117.915151s229.624242-40.339394 266.860606-117.915151h204.8z" fill="#FFDB1C" p-id="10518"></path><path d="M186.181818 620.606061H139.636364V217.212121C139.636364 86.884848 204.8 6.206061 310.30303 6.206061h465.454546c58.957576 0 161.357576 27.927273 161.357576 211.00606v387.878788h-46.545455V217.212121c0-161.357576-83.781818-161.357576-114.812121-161.357576H310.30303C195.490909 55.854545 186.181818 167.563636 186.181818 217.212121v403.39394z" p-id="10519"></path><path d="M775.757576 279.272727H310.30303c-15.515152 0-27.927273-12.412121-27.927272-27.927272s12.412121-27.927273 27.927272-27.927273h465.454546c15.515152 0 24.824242 12.412121 24.824242 27.927273s-9.309091 27.927273-24.824242 27.927272zM645.430303 496.484848h-251.345455c-15.515152 0-27.927273-12.412121-27.927272-27.927272s12.412121-27.927273 27.927272-27.927273h251.345455c15.515152 0 24.824242 12.412121 24.824242 27.927273s-12.412121 27.927273-24.824242 27.927272z" p-id="10520"></path></svg>