<?xml version="1.0" standalone="no"?><!DOCTYPE svg PUBLIC "-//W3C//DTD SVG 1.1//EN" "http://www.w3.org/Graphics/SVG/1.1/DTD/svg11.dtd">
<svg t="1607744366316" class="icon" viewBox="0 0 1024 1024" version="1.1" xmlns="http://www.w3.org/2000/svg"
     p-id="36486"
     width="128" height="128"><defs><style type="text/css"></style></defs><path d="M542.8 387C518.3 370.8 455 428.8 346 523.6 279.8 581.1 165.4 823 123.8 878.8c-10.1 13.6-2.8 18.2-6.7 9.1-3.7-9.2 48.7-84.8 48.7-84.8s-67.6-194.1-31.2-357c36.2-162.8 221.8-181.7 378.8-221.4 157-39.4 417.3-80.5 417.3-80.5S883.1 289.7 862.2 387c-20.9 97.3-33.4 287.2-141.9 391.7-108.3 104.4-429.4 37-429.4 37s72.5-159.3 112.9-216.4c45.4-64.6 169-192.3 139-212.3z m0 0" fill="#FC8704" p-id="36487"></path><path d="M474.7 416.1c-25.4-17.6-107.4 80.1-196.1 204.8C212.9 713.1 140 916.8 96.7 977.7c-10.5 14.8-61.4-6.1-65.4-16-3.8-10 50.8-92.3 50.8-92.3s-69.7-210.8-31.4-388c38.1-177 186.6-268.5 349.7-312.1C563.6 126.1 878.3 151 878.3 151S778 270 756.1 375.8c-21.9 105.9-8.9 314.8-121.9 428.7-78.1 78.8-246 93.5-344.6 90.5-35.6-1.1-62.8-45.7-47.9-77.9 25.8-55.8 63-132.5 88-169.7 47.4-70.5 176.2-209.7 145-231.3z m0 0" fill="#FFDA03" p-id="36488"></path><path d="M56.3 1022.6c-5.4 0-10.9-1.2-16.1-3.7-17.9-8.9-25.3-30.5-16.6-48.4 1.8-4 19.5-40.3 45.6-91.2-21.4-56.7-87.4-251.8-58-428.6 30.4-183.8 172.3-320.1 410.4-394C611.5-2.3 971.1 4.3 986.4 4.8c13.8 0.3 26.3 8.4 32.1 20.8 6 12.5 4.3 27.3-4.3 38.1-1.1 1.3-102.9 131.4-119.7 238.2-4.5 29.3-5.2 66.1-5.8 105.1-1.8 113.9-4.1 255.7-103.8 362.5-133.6 143.2-479.1 126.4-493.8 125.6-20-1.1-35.4-18.2-34.3-38.4 1.1-20 17.8-35.5 38.3-34.4 90.5 5.3 345-4.1 436.6-102.4 80.6-86.4 82.5-207.4 84.2-314.1 0.7-41.5 1.3-80.9 6.7-115.3 12.2-77 58.2-159.5 93-213.2-114.1 0.9-341.8 8.1-472.4 48.8-213 66.2-334.3 179.4-360.3 336.5-19.4 116.9 9.5 247.4 33.4 327.8 43.2-79.4 94.8-167.7 139.6-226.3 82.9-108.2 250.3-230.3 257.4-235.4 16.2-11.8 39.1-8.2 50.8 8.1 11.8 16.2 8.2 38.9-8.1 50.7-1.6 1.3-166 121-242.4 220.7-58 75.8-130.7 209.4-177.3 299.9l-47.5 94.5c-6.4 12.7-19.1 20-32.5 20z m0 0" p-id="36489"></path></svg>