<?xml version="1.0" standalone="no"?><!DOCTYPE svg PUBLIC "-//W3C//DTD SVG 1.1//EN" "http://www.w3.org/Graphics/SVG/1.1/DTD/svg11.dtd">
<svg t="1611422816223" class="icon" viewBox="0 0 1024 1024" version="1.1" xmlns="http://www.w3.org/2000/svg"
     p-id="49049"
     width="128" height="128"><defs><style type="text/css"></style></defs><path d="M924.225641 824.451282c47.261538-65.641026 76.14359-147.035897 76.14359-236.307692 0-225.805128-186.420513-406.974359-412.225641-406.974359-228.430769 0-412.225641 183.794872-412.225641 406.974359 0 225.805128 186.420513 406.974359 412.225641 406.974359 94.523077 0 183.794872-31.507692 252.061538-86.646154l84.020513-84.020513z" fill="#FFD05E" p-id="49050"></path><path d="M918.974359 317.702564c23.630769 57.764103 36.758974 118.153846 36.758974 181.169231s-13.128205 123.405128-36.758974 181.169231c-23.630769 55.138462-57.764103 105.025641-99.774359 147.035897-86.646154 86.646154-207.425641 136.533333-330.830769 136.533333-63.015385 0-128.65641-13.128205-186.420513-39.384615-57.764103-23.630769-107.651282-60.389744-149.661539-105.025641-7.876923-7.876923-10.502564-15.753846-10.502564-26.25641s5.251282-18.379487 10.502564-26.256411c15.753846-13.128205 39.384615-13.128205 52.512821 0 73.517949 76.14359 175.917949 120.779487 283.569231 120.779488 105.025641 0 204.8-39.384615 278.317948-115.528205 73.517949-73.517949 115.528205-173.292308 115.528206-275.692308 0-105.025641-42.010256-204.8-115.528206-275.692308-73.517949-73.517949-173.292308-115.528205-278.317948-115.528205s-204.8 42.010256-278.317949 115.528205c-15.753846 13.128205-36.758974 13.128205-52.51282 0-13.128205-13.128205-15.753846-36.758974-2.625641-52.51282 42.010256-42.010256 91.897436-76.14359 149.661538-99.774359s120.779487-36.758974 181.169231-36.758975c63.015385 0 123.405128 13.128205 181.169231 36.758975 118.153846 49.887179 204.8 139.158974 252.061538 249.435897z m-498.871795 304.574359l65.641026-84.020513h-425.353846c-10.502564 0-18.379487-5.251282-26.256411-10.502564-7.876923-7.876923-10.502564-15.753846-10.502564-26.25641 0-21.005128 15.753846-36.758974 36.758975-36.758974h425.353846l-65.641026-84.020513c-13.128205-15.753846-7.876923-39.384615 7.876923-52.512821s39.384615-10.502564 52.512821 5.251282l112.902564 144.410257c5.251282 5.251282 7.876923 13.128205 7.876923 21.005128v2.625641c0 7.876923-2.625641 15.753846-7.876923 21.005128l-112.902564 144.410257c-5.251282 7.876923-15.753846 13.128205-26.256411 13.128205s-21.005128-2.625641-28.882051-7.876923c-7.876923-5.251282-13.128205-15.753846-13.128205-26.256411s2.625641-18.379487 7.876923-23.630769z" fill="#000000" p-id="49051"></path></svg>