<?xml version="1.0" standalone="no"?><!DOCTYPE svg PUBLIC "-//W3C//DTD SVG 1.1//EN" "http://www.w3.org/Graphics/SVG/1.1/DTD/svg11.dtd">
<svg t="1608483439084" class="icon" viewBox="0 0 1024 1024" version="1.1" xmlns="http://www.w3.org/2000/svg" p-id="6209"
     width="128" height="128"><defs><style type="text/css"></style></defs><path d="M908.997689 914.00064c0 50.809704-179.088958 91.999465-399.997672 91.999465s-399.997672-41.18976-399.997671-91.999465c0-13.999919-24.299859-127.12926 0-138.999191 63.929628-31.239818 131.759233 55.849675 394.997701 69.999593 185.998917 9.999942 352.907946-59.299655 414.997584-26.999843 21.849873 11.369934-9.999942 82.769518-9.999942 95.999441z" fill="#FED518" p-id="6210"></path><path d="M512 511.002986A255.498513 255.498513 0 0 0 692.668948 74.835524a255.498513 255.498513 0 0 0-361.337896 361.337897A253.828523 253.828523 0 0 0 512 511.002986z m0-450.997375c107.799373 0 195.498862 87.69949 195.498862 195.498862S619.799373 451.003335 512 451.003335s-195.498862-87.69949-195.498862-195.498862S404.200627 60.005611 512 60.005611zM954.227426 753.001577a246.598565 246.598565 0 0 0-1.76999-8.319951A29.999825 29.999825 0 1 0 893.997777 758.111548c0.479997 2.099988 0.939995 4.239975 1.349992 6.349963a199.918836 199.918836 0 0 1 3.649979 38.209777c0 43.999744-13.999919 85.179504-39.379771 116.069325-23.99986 29.17983-55.209679 45.249737-87.909489 45.249736H252.291512c-32.69981 0-63.919628-16.069906-87.909489-45.249736C139.002171 887.860792 125.002252 846.641032 125.002252 802.671288v-3.42998c0.919995-54.799681 24.249859-104.099394 62.399637-131.879232 27.719839-20.189882 59.999651-26.119848 90.999471-16.699903l110.899354 33.719804a421.887544 421.887544 0 0 0 247.148562-0.239999l133.99922-40.999761a30.259824 30.259824 0 0 1 12.209929-1.139994 104.219393 104.219393 0 0 1 38.259777 12.14993 29.999825 29.999825 0 1 0 28.549834-52.769693 163.939046 163.939046 0 0 0-60.21965-18.99989 89.909477 89.909477 0 0 0-36.399788 3.43998l-133.99922 40.999762a362.107892 362.107892 0 0 1-212.118765 0.199999l-110.819355-33.759804a157.379084 157.379084 0 0 0-76.139557-4.189976 168.129021 168.129021 0 0 0-67.649606 29.789827C98.822405 657.662132 66.272594 724.711742 65.002602 798.221314v4.449974c0 121.99929 83.999511 221.328712 187.28891 221.328712h519.416976C874.997887 1024 958.997398 924.710578 958.997398 802.671288a260.098486 260.098486 0 0 0-4.769972-49.669711z" fill="#111111" p-id="6211"></path></svg>