<?xml version="1.0" standalone="no"?><!DOCTYPE svg PUBLIC "-//W3C//DTD SVG 1.1//EN" "http://www.w3.org/Graphics/SVG/1.1/DTD/svg11.dtd">
<svg t="1608482826613" class="icon" viewBox="0 0 1024 1024" version="1.1" xmlns="http://www.w3.org/2000/svg"
     p-id="62953"
     width="128" height="128"><defs><style type="text/css"></style></defs><path d="M631.404379 983.080919c-39.896104 0-66.493506-26.597403-66.493506-66.493506h134.00999c0 39.896104-27.62038 66.493506-67.516484 66.493506zM630.381402 185.158841C799.172611 185.158841 935.228555 322.237762 935.228555 490.005994V849.070929H328.60318V490.005994c0-168.791209 134.00999-304.847153 301.778222-304.847153z" fill="#F5CC3C" p-id="62954"></path><path d="M176.179604 755.98002c20.45954 0 33.758242-13.298701 33.758242-33.758242V454.201798c0-134.00999 86.953047-247.56044 207.664335-287.456543 20.45954-7.160839 33.758242-20.45954 26.597403-39.896104-7.160839-20.45954-26.597403-26.597403-47.056943-20.459541-153.446553 47.056943-253.698302 187.204795-253.698302 347.812188v266.997003c-1.022977 20.45954 12.275724 34.781219 32.735265 34.781219z" fill="" p-id="62955"></path><path d="M911.700083 822.473526h-33.758241V461.362637c0-173.906094-120.711289-321.214785-287.456544-361.110889-26.597403-7.160839-47.056943-33.758242-47.056943-66.493506 0-20.45954-13.298701-33.758242-33.758242-33.758242-20.45954 0-33.758242 13.298701-33.758241 33.758242 0 60.355644 39.896104 113.55045 100.251748 126.849151C710.17361 194.365634 810.425358 314.053946 810.425358 455.224775v367.248751H109.686097c-20.45954 0-33.758242 13.298701-33.758241 33.758242 0 20.45954 13.298701 33.758242 33.758241 33.758242h266.997003c0 73.654346 60.355644 134.00999 134.00999 134.00999 73.654346 0 134.00999-60.355644 134.00999-134.00999h266.997003c13.298701 0 33.758242-13.298701 33.758242-33.758242 0-20.45954-13.298701-33.758242-33.758242-33.758242zM510.69309 956.483516c-39.896104 0-66.493506-26.597403-66.493506-66.493506h132.987013c0 38.873127-26.597403 66.493506-66.493507 66.493506z" fill="" p-id="62956"></path></svg>