<?xml version="1.0" standalone="no"?><!DOCTYPE svg PUBLIC "-//W3C//DTD SVG 1.1//EN" "http://www.w3.org/Graphics/SVG/1.1/DTD/svg11.dtd">
<svg t="1623678908416" class="icon" viewBox="0 0 1271 1024" version="1.1" xmlns="http://www.w3.org/2000/svg"
     p-id="33971"
     width="158.875" height="128"><defs><style type="text/css"></style></defs><path d="M1106.97931 44.137931H280.717241c74.151724 84.744828 141.241379 178.317241 195.972414 277.186207 26.482759 19.42069 44.137931 51.2 45.903448 88.275862 82.97931 173.02069 135.944828 361.931034 148.303449 556.137931h436.082758c67.089655 0 120.055172-54.731034 120.055173-121.82069V165.958621c0-67.089655-52.965517-121.82069-120.055173-121.82069z" fill="#FFD43E" p-id="33972"></path><path d="M1103.448276 1008.110345h-935.724138c-91.806897 0-167.724138-75.917241-167.724138-167.724138v-670.896552C0 75.917241 75.917241 0 167.724138 0h935.724138C1195.255172 0 1271.172414 75.917241 1271.172414 167.724138v670.896552c0 93.572414-75.917241 169.489655-167.724138 169.489655zM167.724138 93.572414c-40.606897 0-74.151724 33.544828-74.151724 75.917241v670.896552c0 40.606897 33.544828 75.917241 74.151724 75.917241h935.724138c40.606897 0 74.151724-33.544828 74.151724-75.917241v-670.896552c0-42.372414-33.544828-75.917241-74.151724-75.917241h-935.724138z" p-id="33973"></path><path d="M986.924138 776.827586H284.248276c-28.248276 0-51.2-22.951724-51.2-51.2s22.951724-51.2 51.2-51.2H988.689655c28.248276 0 51.2 22.951724 51.2 51.2s-24.717241 51.2-52.965517 51.2zM395.475862 589.682759c-90.041379 0-164.193103-74.151724-164.193103-165.958621s74.151724-165.958621 164.193103-165.958621c90.041379 0 164.193103 74.151724 164.193104 165.958621s-74.151724 165.958621-164.193104 165.958621z m0-227.751725c-33.544828 0-61.793103 28.248276-61.793103 61.793104s28.248276 61.793103 61.793103 61.793103 61.793103-28.248276 61.793104-61.793103-28.248276-61.793103-61.793104-61.793104z m582.62069 112.993104h-264.827586c-28.248276 0-51.2-22.951724-51.2-51.2s22.951724-51.2 51.2-51.2h264.827586c28.248276 0 51.2 22.951724 51.2 51.2s-22.951724 51.2-51.2 51.2z" p-id="33974"></path></svg>