<?xml version="1.0" standalone="no"?><!DOCTYPE svg PUBLIC "-//W3C//DTD SVG 1.1//EN" "http://www.w3.org/Graphics/SVG/1.1/DTD/svg11.dtd">
<svg t="1605619605357" class="icon" viewBox="0 0 1024 1024" version="1.1" xmlns="http://www.w3.org/2000/svg" p-id="2800"
     width="128" height="128"><defs><style type="text/css"></style></defs><path d="M766.449664 251.150336c31.744 0 57.479168-25.734144 57.479168-57.479168 0-31.744-25.734144-57.478144-57.479168-57.478144-31.745024 0-57.479168 25.73312-57.479168 57.47712 0 31.746048 25.73312 57.480192 57.479168 57.480192m-16.422912 197.0688c-13.604864 0-24.633344-11.02848-24.633344-24.63232 0-13.604864 11.02848-24.634368 24.633344-24.634368 13.604864 0 24.634368 11.02848 24.634368 24.634368 0 13.604864-11.029504 24.633344-24.634368 24.633344m0 164.225024c-13.604864 0-24.633344-11.02848-24.633344-24.633344 0-13.604864 11.02848-24.633344 24.633344-24.633344 13.604864 0 24.634368 11.02848 24.634368 24.633344 0 13.604864-11.029504 24.633344-24.634368 24.633344m0 147.803136c-13.604864 0-24.633344-11.029504-24.633344-24.633344 0-13.605888 11.02848-24.634368 24.633344-24.634368 13.604864 0 24.634368 11.02848 24.634368 24.634368 0 13.60384-11.029504 24.633344-24.634368 24.633344m-320.238592-16.422912c-90.698752 0-164.225024-73.526272-164.225024-164.225024 0-90.698752 73.526272-164.225024 164.225024-164.225024 90.698752 0 164.225024 73.526272 164.225024 164.225024 0 90.698752-73.526272 164.225024-164.225024 164.225024M774.54336 283.995136H249.25696c-72.57088 0-131.49696 58.826752-131.49696 131.393536v361.269248c0 72.68352 58.873856 131.392512 131.49696 131.392512H774.54336c72.569856 0 131.49696-58.826752 131.49696-131.392512V415.388672c0-72.68352-58.873856-131.393536-131.49696-131.393536" fill="#FFF200" p-id="2801"></path><path d="M750.026752 448.22016c-13.604864 0-24.633344-11.02848-24.633344-24.633344 0-13.604864 11.02848-24.634368 24.633344-24.634368 13.604864 0 24.633344 11.029504 24.633344 24.634368 0 13.604864-11.02848 24.633344-24.633344 24.633344z m0-90.227712c-36.168704 0-65.593344 29.425664-65.593344 65.594368 0 36.16768 29.42464 65.593344 65.593344 65.593344s65.593344-29.425664 65.593344-65.593344c0-36.168704-29.42464-65.594368-65.593344-65.594368z m0 254.452736c-13.604864 0-24.633344-11.02848-24.633344-24.633344 0-13.604864 11.02848-24.634368 24.633344-24.634368 13.604864 0 24.633344 11.029504 24.633344 24.634368 0 13.604864-11.02848 24.633344-24.633344 24.633344z m0-90.227712c-36.168704 0-65.593344 29.425664-65.593344 65.594368s29.42464 65.593344 65.593344 65.593344 65.593344-29.42464 65.593344-65.593344-29.42464-65.594368-65.593344-65.594368z m0 238.030848c-13.604864 0-24.633344-11.029504-24.633344-24.634368 0-13.604864 11.02848-24.633344 24.633344-24.633344 13.604864 0 24.633344 11.02848 24.633344 24.633344 0 13.604864-11.02848 24.634368-24.633344 24.634368z m0-90.227712c-36.168704 0-65.593344 29.42464-65.593344 65.593344s29.42464 65.594368 65.593344 65.594368 65.593344-29.425664 65.593344-65.594368-29.42464-65.593344-65.593344-65.593344z m-320.238592 73.8048c-90.699776 0-164.225024-73.526272-164.225024-164.225024 0-90.698752 73.525248-164.225024 164.225024-164.225024 90.698752 0 164.225024 73.526272 164.225024 164.225024 0 90.698752-73.526272 164.225024-164.225024 164.225024z m145.087488-309.312512c-18.830336-18.83136-40.769536-33.619968-65.20832-43.956224-25.322496-10.71104-52.197376-16.141312-79.879168-16.141312-27.681792 0-54.557696 5.430272-79.880192 16.141312-24.438784 10.336256-46.37696 25.124864-65.20832 43.956224-18.830336 18.830336-33.618944 40.769536-43.9552 65.207296-10.71104 25.322496-16.141312 52.1984-16.141312 79.880192 0 27.681792 5.430272 54.556672 16.141312 79.880192 10.336256 24.43776 25.124864 46.37696 43.9552 65.207296 18.83136 18.830336 40.769536 33.619968 65.20832 43.956224 25.322496 10.710016 52.1984 16.141312 79.880192 16.141312 27.681792 0 54.556672-5.431296 79.879168-16.141312 24.438784-10.336256 46.377984-25.125888 65.20832-43.956224 18.830336-18.830336 33.619968-40.769536 43.956224-65.207296 10.710016-25.32352 16.141312-52.1984 16.141312-79.880192 0-27.681792-5.431296-54.557696-16.141312-79.880192-10.336256-24.43776-25.125888-46.37696-43.956224-65.207296z m290.204672 342.144c0 49.865728-40.613888 90.433536-90.535936 90.433536H249.25696c-24.20736 0-46.9504-9.398272-64.039936-26.463232C168.13056 823.564288 158.72 800.845824 158.72 776.656896V415.387648c0-49.864704 40.614912-90.432512 90.53696-90.432512h525.287424c24.206336 0 46.949376 9.398272 64.038912 26.463232 17.087488 17.062912 26.497024 39.781376 26.497024 63.96928v361.269248zM766.449664 156.672c20.401152 0 36.998144 16.598016 36.998144 36.999168s-16.596992 36.999168-36.998144 36.999168c-20.401152 0-36.999168-16.598016-36.999168-36.999168S746.048512 156.672 766.449664 156.672z m8.09472 127.323136H439.684096l257.263616-55.077888c12.89216 25.3184 39.195648 42.713088 69.501952 42.713088 42.986496 0 77.958144-34.971648 77.958144-77.959168 0-42.986496-34.971648-77.959168-77.958144-77.959168-41.350144 0-75.268096 32.364544-77.791232 73.091072l-433.171456 92.73856 0.525312 2.453504h-6.755328C176.687104 283.995136 117.76 342.821888 117.76 415.387648v361.269248c0 72.684544 58.872832 131.393536 131.49696 131.393536h525.287424c72.569856 0 131.495936-58.826752 131.495936-131.393536V415.387648c0-72.682496-58.872832-131.392512-131.495936-131.392512z" fill="#000000" p-id="2802"></path></svg>