<?xml version="1.0" standalone="no"?><!DOCTYPE svg PUBLIC "-//W3C//DTD SVG 1.1//EN" "http://www.w3.org/Graphics/SVG/1.1/DTD/svg11.dtd">
<svg t="1611422675908" class="icon" viewBox="0 0 1182 1024" version="1.1" xmlns="http://www.w3.org/2000/svg"
     p-id="42173"
     width="147.75" height="128"><defs><style type="text/css"></style></defs><path d="M0.000363 1023.212913a394.01568 394.01568 0 0 1 787.952652 0H0.000363z" fill="#F6C213" p-id="42174"></path><path d="M1181.1029 976.69608a47.225211 47.225211 0 0 1-94.450423 0V975.987702h-1.338048a376.0701 376.0701 0 0 0-363.948962-325.696541c-4.092852 0-7.870869 0.629669-12.199846 0.629669s-7.870869-0.472252-12.042429-0.550961A375.912683 375.912683 0 0 0 333.17423 975.987702h-1.180631v0.550961a47.225211 47.225211 0 0 1-94.450423 0v-4.250269a44.470407 44.470407 0 0 1 5.824443-21.172637A465.168332 465.168332 0 0 1 522.626036 594.250576a323.413989 323.413989 0 0 1-144.90269-268.86887 332.150653 332.150653 0 0 1 664.222598 0 323.335281 323.335281 0 0 1-144.823982 268.790162 465.325749 465.325749 0 0 1 279.730669 358.439354 45.021368 45.021368 0 0 1 4.722521 19.677172z m-235.024135-651.078248A237.306687 237.306687 0 1 0 708.850786 558.201998a234.945427 234.945427 0 0 0 237.306687-232.584166z m0 0" fill="#363635" p-id="42175"></path></svg>