<?xml version="1.0" standalone="no"?><!DOCTYPE svg PUBLIC "-//W3C//DTD SVG 1.1//EN" "http://www.w3.org/Graphics/SVG/1.1/DTD/svg11.dtd">
<svg t="1605020805019" class="icon" viewBox="0 0 1024 1024" version="1.1" xmlns="http://www.w3.org/2000/svg" p-id="2774"
     width="128" height="128"><defs><style type="text/css"></style></defs><path d="M980.2 419.1c-2.3-18.3-13.7-34.2-34.2-38.8h-2.3c-41.1-9.1-70.8-32-93.6-70.8-20.5-34.2-27.4-77.6-13.7-116.4 6.8-16 2.3-36.5-13.7-50.2-43.4-41.1-95.9-73.1-155.3-93.6-16-6.8-34.2-2.3-50.2 13.7-25.1 32-63.9 47.9-107.3 47.9-38.8 0-75.3-18.3-107.3-50.2-18.3-18.3-36.5-16-50.2-11.4-59.4 25.1-109.6 54.8-153 91.3-16 11.4-22.8 32-16 50.2 11.4 43.4 6.8 84.5-13.7 121-18.3 32-52.5 57.1-93.6 68.5-2.3 0-2.3 0-4.6 2.3-13.7 6.8-22.8 18.2-29.7 34.2v2.3c-6.8 34.2-9.1 63.9-9.1 93.6 0 29.7 2.3 63.9 9.1 91.3 2.3 18.3 13.7 34.2 34.2 38.8h2.3c41.1 9.1 70.8 32 93.6 70.8 20.5 34.2 27.4 77.6 13.7 116.4-6.8 16-2.3 36.5 13.7 50.2 43.4 41.1 95.9 73.1 157.5 93.6 2.3 0 4.6 2.3 9.1 2.3h6.8c11.4 0 25.1-4.6 36.5-16 25.1-29.7 63.9-47.9 107.3-47.9 38.8 0 75.3 18.3 107.3 50.2 9.1 9.1 20.5 16 32 16 4.6 0 11.4 0 16-2.3 59.4-25.1 109.6-54.8 153-91.3 16-9.1 22.8-32 16-50.2-11.4-43.4-6.8-84.5 13.7-121 18.3-32 52.5-57.1 93.6-68.5 2.3 0 2.3 0 4.6-2.3 13.7-6.8 22.8-18.3 29.7-34.2v-2.3c6.8-34.2 9.1-63.9 9.1-93.6-2.2-32-4.5-64-11.3-93.6zM509.8 670.2c-89 0-159.8-70.8-159.8-159.8 0-89 70.8-159.8 159.8-159.8s159.8 70.8 159.8 159.8c0.1 89-70.7 159.8-159.8 159.8z m0 0" fill="#FFFFFF" p-id="2775"></path><path d="M656 1011c-19 0-38.5-9.1-55-25.5-27-27-55.4-40.7-84.3-40.7-32.8 0-62.9 13.3-82.5 36.4l-1.8 2c-16.2 16.2-37.9 25.5-59.5 25.5h-6.9c-5.9 0-10.8-1.1-14.2-2.3h-0.2l-5-1.7c-64.4-21.5-121.3-55.2-169.1-100.4-25.4-22.2-34.3-56.5-22.3-86 9.5-27.7 5.3-60.6-11.2-88.1-17.9-30.5-39.4-47.5-69.5-55l-5.6-0.8c-31.8-7.1-54.3-31.7-59.2-64.4-8-33-9.7-71.1-9.7-97.5 0-33.8 2.9-64.6 9.1-96.8v-5.8l2.6-6.2c9.5-22.3 22.9-38.1 40.8-48.3 4.3-3.5 9.8-6.5 17.4-7.6 31.3-9.4 57.8-28.8 71.3-52.5 16-28.4 19.7-60.5 10.8-95.3-10.7-30.9 0.3-65.6 27-85.4 45.1-37.8 97.5-69.1 160.4-95.7l2.4-0.9c39.8-13.3 67.4 3.2 83.5 19.3 27 27 55.4 40.7 84.3 40.7 34.7 0 63.7-12.6 81.7-35.5l2.6-2.9c24.8-24.8 56.5-32.7 84.9-21.1 63 22 118.9 55.7 166 100.4 24.7 21.2 33.8 55.8 21.7 85.5-9.5 27.7-5.3 60.6 11.2 88.1 17.9 30.5 39.4 47.5 69.5 55l5.6 0.8c31.9 7.1 54.4 31.8 59.2 64.7 7.1 31.7 9.5 64.8 11.8 97l0.1 2.5c0 33.8-2.9 64.6-9.1 96.8v5.8l-2.6 6.1c-9.5 22.3-22.9 38.1-40.8 48.3-4.3 3.5-9.8 6.5-17.4 7.6-31.3 9.3-57.8 28.8-71.3 52.5-16 28.4-19.7 60.5-10.8 95.3 11 32-1.1 68.9-28 86.3-44.7 37.3-96.6 68.2-158.7 94.5-11 5.3-22.8 5.3-29.2 5.3z m0.7-65.1c0.8 0 2.1 0 3.4-0.1 56.8-24.1 103.9-52.2 143.9-85.9l4.8-3.4c1.4-1.1 3.2-6.5 1.6-10.5l-1-3.1c-13.5-51.4-7.7-101.6 16.8-145.2 22.3-39 62.4-69.1 110.6-83.2l1.4-0.8c3.6-1.8 7.8-4.9 12.3-13.6v-0.2c5.8-29.1 8.4-55.7 8.5-86.1-2.2-31.2-4.4-60.6-10.6-87.4l-0.6-3.3c-0.8-6.7-3.9-9.2-6.4-10.3l-4.9-0.8c-49.5-11-87-39.2-114.6-86.1-26.4-44-32.6-97.8-16.3-143.8l0.8-2c1-2.4 0.6-7.9-5-12.7-41.8-39.4-90-68.5-144.7-87.4l-2.2-0.8c-4.3-1.8-10.3 3-13.3 5.7-30.6 37.8-77.2 58.6-131.4 58.6-46.1 0-91.2-20.7-130.3-59.8-5.7-5.7-8.8-6.1-15.8-3.9-56.6 24.1-103.5 52.1-143.4 85.7l-2.1 1.6c-4.2 3-6 8.1-4.4 12.3l1 3.1c13.5 51.4 7.7 101.7-16.8 145.2-22.3 39-62.5 69.1-110.7 83.2l-1.3 0.8c-3.6 1.8-7.8 4.9-12.3 13.6v0.2c-5.9 29.4-8.5 56.3-8.5 87.2 0 32.8 2.9 62.4 8.2 83.4l0.7 3.9c0.8 6.7 3.9 9.2 6.4 10.3l4.9 0.8c49.5 11 87 39.2 114.6 86.1 26.4 44 32.6 97.8 16.3 143.8l-0.8 2c-1 2.4-0.6 7.9 5 12.7l1.2 1.1c40.3 38.2 88.5 67 143.1 85.6 1.9 0.4 3.5 0.9 4.8 1.4h3.2c1.6 0 7.1-0.4 12.8-5.7 32-37 79.6-58.2 131-58.2 46.2 0 91.2 20.7 130.3 59.8 4.8 4.8 8.4 6.3 9.3 6.5 0.2-0.3 0.4-0.3 0.5-0.3z m4.3-0.2zM509.8 702.8c-107.9 0-192.4-84.5-192.4-192.4S402 318 509.8 318s192.4 84.5 192.4 192.4S617.7 702.8 509.8 702.8z m0-319.7c-71.4 0-127.3 55.9-127.3 127.3s56 127.3 127.3 127.3 127.3-55.9 127.3-127.3S581.2 383.1 509.8 383.1z" fill="#1E1A08" p-id="2776"></path><path d="M941.8 412.8s-81.1-8.3-127.9-101.4c-28.8-65.5-13.1-96.7-15.9-99.2-35.7-31.8-78-56.6-125.4-73-13.8-5.9-29.5-2-43.2 11.8-21.6 27.5-55 41.3-92.4 41.3-33.4 0-64.9-15.7-92.4-43.2-15.7-15.7-31.4-13.8-43.2-9.8-51.1 21.6-94.4 47.2-131.7 78.6-13.8 9.8-19.7 27.5-13.8 43.2 9.8 37.3 5.9 72.7-11.8 104.2-15.7 27.5-45.2 49.1-80.6 59-2 0-2 0-3.9 2-11.8 5.9-19.7 15.7-25.6 29.5v2c-5.9 29.5-7.9 55-7.9 80.6 0 25.6 2 55 7.9 78.6 2 15.7 11.8 29.5 29.5 33.4h2c35.4 7.9 60.9 27.5 80.6 60.9 17.7 29.5 23.6 66.8 11.8 100.2-5.9 13.8-2 31.5 11.8 43.2 34.3 32.5 75.2 58.3 122.7 76 55.4-54.8 119.8-53.9 150.5-48.5 66.8 9.5 103.1 61.5 113.1 63.7 0.6 0 2.8 0 4.5-0.2 12.8-4.9 50.4-23 62-30.2 31.8-16.6 58.2-36 83.8-57.6 0.1-0.1 2.9-1.6 3.1-1.7 1.8-2.8 2.1-7.9 1.5-9.2-9.8-37.3-30.9-162.8 101.8-223.9 1.8-0.8 21.9-8.1 23.7-8.5 8.9-2.9 14.3-14.6 14.3-14.6 5-28.2 8-42.8 8-65.4 1.5-17.7 0-66.1-10.3-109.6-0.2 0-0.7-11.8-6.6-12.2z m-404.9 261c-76.7 0-137.6-60.9-137.6-137.6 0-76.7 60.9-137.6 137.6-137.6s137.6 60.9 137.6 137.6c0 76.6-60.9 137.6-137.6 137.6z m0 0" fill="#F3CF22" p-id="2777"></path><path d="M512.1 352.7c88.3 0 159.9 71.4 159.9 159.5s-71.6 159.5-159.9 159.5-159.9-71.4-159.9-159.5c0.1-88.1 71.6-159.5 159.9-159.5z" fill="#44AF35" p-id="2778"></path><path d="M512.1 696.1c-101.6 0-184.3-82.5-184.3-183.9s82.7-183.9 184.3-183.9 184.3 82.5 184.3 183.9-82.7 183.9-184.3 183.9z m0-319c-74.7 0-135.5 60.6-135.5 135.1s60.8 135.1 135.5 135.1 135.5-60.6 135.5-135.1S586.8 377.1 512.1 377.1z" fill="#1E1A08" p-id="2779"></path></svg>