<?xml version="1.0" standalone="no"?><!DOCTYPE svg PUBLIC "-//W3C//DTD SVG 1.1//EN" "http://www.w3.org/Graphics/SVG/1.1/DTD/svg11.dtd">
<svg t="1607745479993" class="icon" viewBox="0 0 1024 1024" version="1.1" xmlns="http://www.w3.org/2000/svg"
     p-id="53164"
     width="128" height="128"><defs><style type="text/css"></style></defs><path d="M894.9248 407.552v204.7488c0 5.5296-3.9936 10.8032-10.9568 14.336-38.5024 19.5072-139.8272 129.8944-351.8976 8.8576-120.7808-52.6848-209.5616-104.448-392.7552 8.0384V383.8464s187.136-121.3952 418.304 3.1744c92.2112 33.1264 163.0208 40.192 293.632 3.584 20.4288-5.7344 43.6736 3.2768 43.6736 16.9472z" fill="#FACC31" p-id="53165"></path><path d="M893.3888 145.6128c-16.2304-10.1376-36.1472-11.2128-53.2992-2.8672-124.3136 60.5184-185.7024 46.848-268.2368-4.5056C483.6864 75.5712 378.5728 54.6816 267.776 77.824a486.94784 486.94784 0 0 0-102.8096 33.9456v-10.6496c0-14.1312-11.4688-25.6-25.6-25.6s-25.6 11.4688-25.6 25.6v831.8976c0 14.1312 11.4688 25.6 25.6 25.6s25.6-11.4688 25.6-25.6V656.896c108.544-72.8576 233.4208-75.2128 344.576-5.8368 74.8032 52.5824 142.5408 70.5536 200.2432 70.5536 96.768 0 165.2736-50.5856 191.1296-73.2672 12.4928-11.008 19.6608-27.0336 19.6608-44.0832V195.2256c-0.0512-20.4288-10.1888-39.0144-27.1872-49.6128z m-350.6176 34.7648c0.4096 0.3072 0.8704 0.6144 1.3312 0.8704 94.9248 59.1872 173.7728 77.9264 318.4128 7.4752 0.6144-0.3072 1.9456-0.9216 3.7376 0.2048 0.9216 0.5632 3.072 2.3552 3.072 6.2464v169.216c-1.1776 0.6144-2.3552 1.28-3.4304 2.0992-101.6832 77.3632-222.7712 27.0848-274.4832 5.632-3.2768-1.3824-6.2464-2.6112-8.8576-3.6352-8.6016-3.4816-17.6128-7.68-27.136-12.1344-40.1408-18.7904-90.112-42.1888-188.0576-51.0976-81.92-7.424-158.3616 18.176-202.3936 37.3248V168.9088c46.0288-24.6272 218.368-102.4 377.8048 11.4688z m324.2496 429.4656c-43.776 38.5024-163.3792 115.456-328.6528-1.0752-0.4096-0.256-0.768-0.512-1.1776-0.768-61.952-38.7584-128.9216-58.0608-195.7376-58.0608-60.2624 0-120.4224 15.7184-176.5888 47.0016V399.2064c30.4128-15.2576 111.8208-50.7392 197.7856-42.9056 88.9856 8.0896 134.4512 29.3888 170.9568 46.4896 10.1888 4.7616 19.8144 9.2672 29.696 13.2608 2.4576 0.9728 5.2736 2.1504 8.3456 3.4304 32.2048 13.3632 95.8976 39.7824 168.3456 39.7824 41.6256 0 86.1184-8.7552 129.2288-33.6384v178.5856c0.1024 2.304-0.768 4.4032-2.2016 5.632z" fill="#191919" p-id="53166"></path></svg>