<?xml version="1.0" standalone="no"?><!DOCTYPE svg PUBLIC "-//W3C//DTD SVG 1.1//EN" "http://www.w3.org/Graphics/SVG/1.1/DTD/svg11.dtd">
<svg t="1605628039087" class="icon" viewBox="0 0 1024 1024" version="1.1" xmlns="http://www.w3.org/2000/svg" p-id="6188"
     width="128" height="128"><defs><style type="text/css"></style></defs><path d="M861.623101 1024H162.376899a162.562065 162.562065 0 0 1-162.376899-162.376899V162.376899A162.562065 162.562065 0 0 1 162.376899 0h699.246202a162.562065 162.562065 0 0 1 162.376899 162.376899v699.246202a162.562065 162.562065 0 0 1-162.376899 162.376899zM162.376899 35.608969a126.924609 126.924609 0 0 0-126.76793 126.76793v699.246202a126.910366 126.910366 0 0 0 126.76793 126.76793h699.246202a126.896122 126.896122 0 0 0 126.76793-126.76793V162.376899a126.910366 126.910366 0 0 0-126.76793-126.76793z" fill="#ABAAAA" p-id="6189"></path><path d="M535.330996 294.842263c-5.825627-5.825627-14.585434-8.745563-23.330996-8.745562s-17.505369 2.848718-23.330996 8.745562L345.720358 469.924442a28.885996 28.885996 0 0 0 40.85061 40.850609l96.286652-116.683469V840.371669c0 17.505369 11.665498 29.170867 29.170867 29.170867s29.170867-11.665498 29.170868-29.170867V394.091582l96.258165 116.683469a28.885996 28.885996 0 0 0 40.836365-40.850609zM774.537807 169.498692H249.462193c-17.505369 0-29.170867 11.665498-29.170867 29.170868s11.665498 29.170867 29.170867 29.170867h525.075614c17.505369 0 29.170867-11.665498 29.170867-29.170867A29.227842 29.227842 0 0 0 774.537807 169.498692z" fill="#E1BC61" p-id="6190"></path></svg>