<?xml version="1.0" standalone="no"?><!DOCTYPE svg PUBLIC "-//W3C//DTD SVG 1.1//EN" "http://www.w3.org/Graphics/SVG/1.1/DTD/svg11.dtd">
<svg t="1598973614299" class="icon" viewBox="0 0 1024 1024" version="1.1" xmlns="http://www.w3.org/2000/svg" p-id="2686"
     width="200" height="200"><defs><style type="text/css"></style></defs><path d="M498.597647 469.172706c0 1.656471 0 1.656471 0 0l-3.373176 3.312941c-6.776471 6.656-10.149647 16.624941-10.149647 26.593882 0 14.938353 8.432941 28.220235 20.269176 34.846118 11.806118 6.625882 28.672 6.625882 40.508235 0a23.250824 23.250824 0 0 0 6.746353-4.969412l163.689412-161.039059 104.628706 6.625883 175.525647-177.633883-151.883294-14.938352-15.179294-154.413177-178.898824 172.664471 8.432941 107.911529-160.316235 161.039059z" fill="#918282" p-id="2687"></path><path d="M436.013176 469.473882l72.824471-75.414588c-154.563765-13.131294-209.648941 81.980235-209.648941 81.980235-88.847059 140.980706 28.431059 236.062118 28.431059 236.062118 158.117647 98.394353 268.288 8.222118 268.288 8.222118 104.809412-68.879059 63.969882-196.758588 63.969882-196.758589l-76.408471 73.788236c-8.884706 26.202353-28.431059 50.808471-28.431058 50.80847-67.523765 73.788235-156.340706 19.696941-156.340706 19.696942-63.969882-36.080941-51.531294-114.748235-51.531294-114.748236 19.546353-77.101176 88.847059-83.636706 88.847058-83.636706z" fill="#918282" p-id="2688"></path><path d="M838.656 468.269176c38.731294 242.989176-92.641882 350.991059-92.641882 350.991059-131.373176 146.823529-328.463059 111.375059-328.463059 111.375059-148.239059-23.612235-218.955294-108.001882-218.955294-108.001882-99.388235-84.359529-111.194353-239.616-111.194353-239.616-8.432941-114.748235 50.537412-216.003765 50.537412-216.003765C186.789647 275.877647 277.744941 221.876706 277.744941 221.876706c129.716706-72.553412 279.612235-38.791529 279.612235-38.79153l58.970353-57.374117c-106.134588-43.881412-249.313882-16.865882-249.313882-16.865883C196.909176 135.830588 97.520941 284.310588 97.520941 284.310588-27.136 461.522824 18.341647 640.391529 18.341647 640.391529c47.164235 217.690353 224.045176 313.856 224.045177 313.856 230.761412 126.584471 424.448 11.836235 424.448 11.836236 195.403294-99.568941 240.880941-288.557176 240.880941-288.557177 40.417882-140.077176-10.089412-270.004706-10.089412-270.004706l-58.970353 60.747294z" fill="#918282" p-id="2689"></path></svg>