<?xml version="1.0" standalone="no"?><!DOCTYPE svg PUBLIC "-//W3C//DTD SVG 1.1//EN" "http://www.w3.org/Graphics/SVG/1.1/DTD/svg11.dtd">
<svg t="1605619799151" class="icon" viewBox="0 0 1024 1024" version="1.1" xmlns="http://www.w3.org/2000/svg"
     p-id="14018"
     width="128" height="128"><defs><style type="text/css"></style></defs><path d="M532.582301 1024c-145.219423 0-258.93622-239.178476-258.93622-544.655161C273.646081 192.638011 377.703536 0 532.582301 0s258.93622 192.638011 258.936221 479.344839c0 305.476686-113.826562 544.655161-258.936221 544.655161z m0-971.532211c-121.619895 0-206.468432 175.624397-206.468432 426.87705 0 294.390396 106.691821 492.187373 206.468432 492.187372s206.358667-197.577447 206.358667-492.187372c0-251.252653-84.848537-426.87705-206.358667-426.87705z" fill="#6E4123" p-id="14019"></path><path d="M274.304672 861.766963c-82.433701 0-142.694823-25.685068-173.319327-74.201308C22.832489 665.177404 163.222241 440.597706 420.731513 276.169364 551.132628 192.967306 674.508767 148.951442 777.907631 148.951442c84.189945 0 150.488155 31.063565 186.600922 87.812198 83.421589 130.620645-22.940937 321.941473-264.644014 476.271412-146.646372 92.971165-305.586451 148.731911-425.559867 148.731911zM777.907631 201.41923c-91.983278 0-208.553971 42.259621-329.295745 119.095295-248.069461 158.391253-357.285883 354.761282-303.720441 439.060992 26.34366 41.161968 84.738772 49.833423 129.083932 49.833423 110.42384 0 258.71669-52.577554 396.801372-140.719048 211.846929-135.340551 314.14814-301.305606 248.728052-403.716583-33.03934-52.577554-95.495766-63.554079-141.59717-63.554079z" fill="#6E4123" p-id="14020"></path><path d="M796.457958 861.766963c-120.083181 0-279.023261-55.760746-425.230572-149.061207C129.634075 558.375817 23.27155 367.05499 106.583373 236.434345c36.003001-56.419338 102.301211-87.812199 186.600922-87.812199 102.959803 0 226.335942 43.906099 356.737056 127.217923 257.509272 164.647872 397.899025 389.008039 319.746168 511.396291-30.9538 48.845535-90.885625 74.530603-173.209561 74.530603zM293.184295 201.41923c-46.540465 0-108.887126 10.976525-142.694823 63.334549-65.859149 102.410977 36.881123 268.376032 248.728053 403.716582 138.084682 87.812199 286.487298 140.719048 396.911137 140.719048 43.906099 0 102.630507-8.671455 128.974167-49.943188 53.675206-83.970415-55.650981-280.340444-303.720442-439.060992-119.863651-76.506378-236.54411-118.765998-328.198092-118.765999z" fill="#6E4123" p-id="14021"></path><path d="M536.643615 507.883803m-98.020366 0a98.020367 98.020367 0 1 0 196.040733 0 98.020367 98.020367 0 1 0-196.040733 0Z" fill="#F7BB83" p-id="14022"></path><path d="M536.424085 632.138064a124.254261 124.254261 0 1 1 124.473791-124.254261A124.364026 124.364026 0 0 1 536.424085 632.138064z m0-195.930968a71.786472 71.786472 0 1 0 71.676707 71.676707A71.786472 71.786472 0 0 0 536.424085 436.207096z" fill="#6E4123" p-id="14023"></path><path d="M177.381958 728.402187a65.310323 65.310323 0 1 1-65.310322-65.859149 65.859149 65.859149 0 0 1 65.310322 65.859149z" fill="#F7BB83" p-id="14024"></path><path d="M112.071636 819.946404a91.653982 91.653982 0 1 1 91.544217-91.544217 91.653982 91.653982 0 0 1-91.544217 91.544217z m0-130.620646a39.076428 39.076428 0 1 0 39.076428 39.076429 39.076428 39.076428 0 0 0-39.076428-39.076429z" fill="#6E4123" p-id="14025"></path><path d="M977.460852 801.835138a65.859149 65.859149 0 1 1-65.859149-65.859149 65.310323 65.310323 0 0 1 65.859149 65.859149z" fill="#F7BB83" p-id="14026"></path><path d="M912.150529 893.379355a91.544217 91.544217 0 1 1 91.544217-91.544217 91.653982 91.653982 0 0 1-91.544217 91.544217z m0-130.620646a39.076428 39.076428 0 1 0 39.076429 39.076429 39.186194 39.186194 0 0 0-39.076429-39.076429z" fill="#6E4123" p-id="14027"></path><path d="M463.100899 99.776611a65.310323 65.310323 0 1 1-65.859149-65.310323 65.859149 65.859149 0 0 1 65.859149 65.310323z" fill="#F7BB83" p-id="14028"></path><path d="M397.790576 191.320828a91.653982 91.653982 0 1 1 91.653983-91.544217 91.653982 91.653982 0 0 1-91.653983 91.544217z m0-130.620646a39.076428 39.076428 0 1 0 39.076429 39.076429 38.966663 38.966663 0 0 0-39.076429-39.076429z" fill="#6E4123" p-id="14029"></path></svg>