<?xml version="1.0" standalone="no"?><!DOCTYPE svg PUBLIC "-//W3C//DTD SVG 1.1//EN" "http://www.w3.org/Graphics/SVG/1.1/DTD/svg11.dtd"><svg t="1677027423521" class="icon" viewBox="0 0 1024 1024" version="1.1" xmlns="http://www.w3.org/2000/svg" p-id="9103" xmlns:xlink="http://www.w3.org/1999/xlink" width="128" height="128"><path d="M697.576 58.344a21.18 21.18 0 0 0-36.528-17.68L197.14 548.272a26.252 26.252 0 0 0 19.384 43.968H380.96l-61.316 374.708a20.04 20.04 0 0 0 34.436 16.904l472.372-506.576a27.096 27.096 0 1 0-19.82-45.584H636.96l60.616-373.348z" fill="#FFAC6C" p-id="9104"></path><path d="M661.048 40.664a21.168 21.168 0 0 1 19.736-6.488l-243.824 397.516h184.156a27.108 27.108 0 0 1 23.244 41.036L334.512 989.616a20.04 20.04 0 0 1-14.868-22.668L380.96 592.24H216.524a26.252 26.252 0 0 1-19.384-43.968L661.048 40.664z" fill="#FFD474" p-id="9105"></path></svg>