<?xml version="1.0" standalone="no"?><!DOCTYPE svg PUBLIC "-//W3C//DTD SVG 1.1//EN" "http://www.w3.org/Graphics/SVG/1.1/DTD/svg11.dtd"><svg t="1629016771969" class="icon" viewBox="0 0 1024 1024" version="1.1" xmlns="http://www.w3.org/2000/svg" p-id="4838" xmlns:xlink="http://www.w3.org/1999/xlink" width="128" height="128"><defs><style type="text/css"></style></defs><path d="M498.039034 657.912208c-71.559802 0-129.772622-58.204633-129.772623-129.75625V211.455993c0-71.551616 58.21282-129.756249 129.772623-129.756249l2.067078 0.016372c70.406536 1.098008 127.689171 61.657268 127.689171 134.995577v306.188565c0 73.338309-57.283658 133.898593-127.689171 134.995577l-2.067078 0.016373z" fill="#F7D11E" p-id="4839"></path><path d="M498.03187 98.106412l1.820462 0.014326c61.499679 0.958838 111.532189 54.159504 111.532189 118.594025v306.185495c0 64.435545-50.03251 117.637234-111.532189 118.594025l-1.820462 0.014326c-62.502519 0-113.352651-50.849108-113.352651-113.351627V211.459063c0-62.503543 50.850132-113.352651 113.352651-113.352651m0.001024-32.816407c-80.734766 0-146.169057 65.437361-146.169058 146.168034v316.697919c0 80.726579 65.442478 146.167011 146.168034 146.167011 0.775666 0 1.553379-0.00614 2.332115-0.018419 80.69895-1.25662 143.835919-70.696132 143.835919-151.406339v-306.183448c0-80.710206-63.136969-150.147672-143.835919-151.406338-0.773619-0.01228-1.560542-0.01842-2.331091-0.01842z" fill="#885F44" p-id="4840"></path><path d="M717.234291 381.987924c-13.426801 0-24.310685 10.883885-24.310685 24.310686v121.857348h0.213871c0 106.087177-85.137029 192.489012-190.643992 194.890712h-8.921183c-105.506962-2.4017-190.643991-88.803535-190.643991-194.890712h0.213871v-122.612548c0-13.009292-10.546194-23.555485-23.555486-23.555486-13.899568 0-25.167193 11.267625-25.167192 25.167193v121.000841h0.213871c0 125.85029 96.03524 229.67596 218.660068 242.11527 0.214894 0.021489 0.3776 0.199545 0.3776 0.415462v122.459053a0.430812 0.430812 0 0 1-0.430812 0.430812H351.894536c-13.470803 0-24.391527 10.920724-24.391527 24.391527 0 13.437034 10.893094 24.329105 24.329105 24.329105h292.400536c13.437034 0 24.329105-10.893094 24.329105-24.329105 0-13.470803-10.920724-24.391527-24.391526-24.391527H522.824533a0.430812 0.430812 0 0 1-0.430812-0.430812v-122.459053c0-0.215918 0.162706-0.393973 0.3776-0.415462 122.625852-12.43931 218.660068-116.266004 218.660069-242.11527h0.213871V406.379451c0-13.470803-10.920724-24.391527-24.391527-24.391527h-0.019443z" fill="#F7D11E" p-id="4841"></path><path d="M644.23572 958.708971H351.826997c-22.464641 0-40.730657-18.274202-40.730656-40.738843 0-22.496363 18.298761-40.803311 40.795125-40.803311h105.368816v-92.446505c-120.639614-19.075451-211.026204-118.652354-218.524993-240.156662h-0.512676l-0.208754-16.407692V407.15614c0-22.921036 18.650779-41.572838 41.58-41.572837 22.031782 0 39.962154 17.930371 39.962154 39.962153V537.064862c4.646833 92.206028 81.093946 167.450756 174.381609 169.582303l8.556887-0.008186c93.687776-2.13871 170.615842-78.610382 174.108386-171.857113l-0.079818-6.625908V406.29861c0-22.448268 18.266016-40.715307 40.715307-40.715307 22.496363 0 40.811498 18.298761 40.811498 40.795124l-0.721431 138.185223c-7.498788 121.625058-98.046037 221.273593-218.524992 240.181221v92.421946h105.368816c22.496363 0 40.795125 18.306948 40.795125 40.803311-0.001023 22.464641-18.267039 40.738843-40.73168 40.738843z m-292.344254-48.726771c-4.406356 0-7.979742 3.581572-7.979742 7.987928 0 4.366448 3.557012 7.92346 7.915273 7.92346h292.408723c4.358261 0 7.915273-3.557012 7.915274-7.92346 0-4.406356-3.573385-7.987928-7.979742-7.987928H506.418888l-0.432859-16.84055V755.413845l15.622816-1.506306c115.752304-11.752672 203.415876-108.822474 203.415876-225.751581l0.208755-121.776507c0-4.39817-3.573385-7.979742-7.979742-7.979742-4.358261 0-7.915273 3.541663-7.915273 7.899924l0.208754 121.857349c0 113.909329-92.710518 208.695113-206.684316 211.29124l-9.293667 0.008187c-114.342188-2.603291-207.052706-97.389074-207.052706-211.298404l0.224104-122.610502a7.15291 7.15291 0 0 0-7.146771-7.146771c-4.839215 0-8.764618 3.925403-8.764617 8.756431l0.208754 120.999819c0 116.930129 87.663572 213.998909 203.91218 225.791489l14.757098 1.49812 0.368391 15.238053v138.865721l-16.84055 0.432858h-121.343649z" fill="#885F44" p-id="4842"></path></svg>