<?xml version="1.0" standalone="no"?><!DOCTYPE svg PUBLIC "-//W3C//DTD SVG 1.1//EN" "http://www.w3.org/Graphics/SVG/1.1/DTD/svg11.dtd"><svg t="1627094042381" class="icon" viewBox="0 0 1024 1024" version="1.1" xmlns="http://www.w3.org/2000/svg" p-id="3945" xmlns:xlink="http://www.w3.org/1999/xlink" width="128" height="128"><defs><style type="text/css"></style></defs><path d="M854.6 65.1H175.5c-23.2 0-42 18.8-42 42v812.4c0 23.2 18.8 42 42 42h679.1c23.2 0 42-18.8 42-42V107c0-23.2-18.8-41.9-42-41.9z m-515.3 639L231.6 596.3l53.9-53.9 53.9 53.9L447 488.6l40 26.9-147.7 188.6z m0-228.6L231.6 367.8l53.9-53.9 53.9 53.9L447 260.1l40 26.9-147.7 188.5z m422 167.8H597.9c-18 0-32.5-14.6-32.5-32.5 0-18 14.6-32.5 32.5-32.5h163.4c18 0 32.5 14.6 32.5 32.5s-14.5 32.5-32.5 32.5z m32.5-261c0 18-14.6 32.5-32.5 32.5H597.9c-18 0-32.5-14.6-32.5-32.5 0-18 14.6-32.5 32.5-32.5h163.4c18-0.1 32.5 14.5 32.5 32.5z" fill="#F96161" p-id="3946"></path></svg>