<?xml version="1.0" standalone="no"?><!DOCTYPE svg PUBLIC "-//W3C//DTD SVG 1.1//EN" "http://www.w3.org/Graphics/SVG/1.1/DTD/svg11.dtd"><svg t="1628773343738" class="icon" viewBox="0 0 1024 1024" version="1.1" xmlns="http://www.w3.org/2000/svg" p-id="2529" xmlns:xlink="http://www.w3.org/1999/xlink" width="128" height="128"><defs><style type="text/css"></style></defs><path d="M756.022303 122.197333c86.04703 0 142.801455-9.122909 195.584-41.766788v516.406303c-52.782545 32.581818-107.799273 55.202909-193.846303 55.20291-85.98497 0-117.884121-9.836606-170.511515-42.635637-52.565333-32.519758-109.568-42.635636-195.52194-42.635636-85.922909 0-158.844121 31.930182-211.533575 64.57406V95.852606c52.689455-32.79903 125.641697-64.729212 211.533575-64.729212 85.953939 0 142.987636 10.20897 195.52194 42.635636 52.689455 32.519758 82.881939 48.438303 168.773818 48.438303z" fill="#d81e06" p-id="2530"></path><path d="M98.148848 1010.160485a31.030303 31.030303 0 0 1-31.030303-31.030303V63.425939a31.030303 31.030303 0 1 1 62.060607 0v915.704243a31.030303 31.030303 0 0 1-31.030304 31.030303z" fill="#d81e06" p-id="2531"></path></svg>