<?xml version="1.0" standalone="no"?><!DOCTYPE svg PUBLIC "-//W3C//DTD SVG 1.1//EN" "http://www.w3.org/Graphics/SVG/1.1/DTD/svg11.dtd">
<svg t="1591520754044" class="icon" viewBox="0 0 1024 1024" version="1.1" xmlns="http://www.w3.org/2000/svg" p-id="3101"
     width="200" height="200"><defs><style type="text/css"></style></defs><path d="M193.1 731c0 18.6 59.9 35.9 157.1 45.2 97.2 9.3 216.9 9.3 314.1 0 97.2-9.3 157.1-26.6 157.1-45.2s-59.9-35.9-157.1-45.2c-97.2-9.3-216.9-9.3-314.1 0-97.2 9.3-157.1 26.6-157.1 45.2z m0 0" fill="#DDDDE8" p-id="3102"></path><path d="M433.3 233.3c-9.3 0-16.4 7.1-16.4 16.4 0 9.3 7.1 16.4 16.4 16.4 9.3 0 16.4-7.1 16.4-16.4 0-9.3-7.1-16.4-16.4-16.4z m0 27.3c-6 0-10.9-4.9-10.9-10.9s4.9-10.9 10.9-10.9 10.9 4.9 10.9 10.9-4.9 10.9-10.9 10.9zM83.8 473.6c-9.3 0-16.4 7.1-16.4 16.4 0 9.3 7.1 16.4 16.4 16.4 9.3 0 16.4-7.1 16.4-16.4-0.1-9.3-7.2-16.4-16.4-16.4z m0 27.3c-6 0-10.9-4.9-10.9-10.9s4.9-10.9 10.9-10.9S94.7 484 94.7 490s-4.9 10.9-10.9 10.9zM930.3 648.3c-9.3 0-16.4 7.1-16.4 16.4 0 9.3 7.1 16.4 16.4 16.4 9.3 0 16.4-7.1 16.4-16.4-0.1-9.3-7.2-16.4-16.4-16.4z m0 27.3c-6 0-10.9-4.9-10.9-10.9s4.9-10.9 10.9-10.9 10.9 4.9 10.9 10.9-4.9 10.9-10.9 10.9z" fill="#3A3A3B" p-id="3103"></path><path d="M770.2 670.2H553.4l-32.8 38.2-45.9-38.2h-47c-30 0-54.6-24.6-54.6-54.6V424.4c0-30 24.6-54.6 54.6-54.6h342.4c30 0 54.6 24.6 54.6 54.6v191.1c0.2 30.1-24.4 54.7-54.5 54.7z m0 0" fill="#F3D421" p-id="3104"></path><path d="M588.9 517.3c0 13.6 11 24.6 24.6 24.6 13.6 0 24.6-11 24.6-24.6 0-13.6-11-24.6-24.6-24.6-13.6 0-24.6 11-24.6 24.6z m0 0" fill="#FFFFFF" p-id="3105"></path><path d="M613.5 495.4c12 0 21.8 9.8 21.8 21.8s-9.8 21.8-21.8 21.8-21.8-9.8-21.8-21.8c0-11.9 9.8-21.8 21.8-21.8m0-5.4c-15.3 0-27.3 12-27.3 27.3s12 27.3 27.3 27.3 27.3-12 27.3-27.3-12-27.3-27.3-27.3z m0 0M728.2 372.5h-2.7c-1.6 0-2.7-1.1-2.7-2.7s1.1-2.7 2.7-2.7h2.7c1.6 0 2.7 1.1 2.7 2.7s-1.1 2.7-2.7 2.7z" fill="#3A3B3B" p-id="3106"></path><path d="M528.9 727.5c-0.5 0-1.6-0.5-2.2-0.5l-53.5-54.1h-45.3c-31.7 0-57.3-25.7-57.3-57.3V424.4c0-31.7 25.7-57.3 57.3-57.3h269.2c1.6 0 2.7 1.1 2.7 2.7s-1.1 2.7-2.7 2.7H427.8c-28.4 0-51.9 23.5-51.9 51.9v191.1c0 28.4 23.5 51.9 51.9 51.9h47c0.5 0 1.6 0.5 2.2 0.5l52.4 52.4 49.7-52.4c0.5-0.5 1.1-1.1 2.2-1.1h218.5c28.4 0 51.9-23.5 51.9-51.9V424.4c0-28.4-23.5-51.9-51.9-51.9h-55.2c-1.6 0-2.7-1.1-2.7-2.7s1.1-2.7 2.7-2.7h54.6c31.7 0 57.3 25.7 57.3 57.3v191.1c0 31.7-25.7 57.3-57.3 57.3H581.8l-51.3 53.5c0 0.7-1.1 1.2-1.6 1.2z m0 0" fill="#3A3B3B" p-id="3107"></path><path d="M406 484.5h-65.5l-16.4 10.9-16.4-10.9h-54.6c-24 0-43.7-19.7-43.7-43.7V348c0-24 19.7-43.7 43.7-43.7H406c24 0 43.7 19.7 43.7 43.7v87.4c0 24-19.7 49.1-43.7 49.1z m0 0" fill="#F3D421" p-id="3108"></path><path d="M236.7 337h180.2v11H236.7v-11z m0 49.2h180.2v10.9H236.7v-10.9z m0 49.1h72.1v10.9h-72.1v-10.9z m0 0" fill="#FFFFFF" p-id="3109"></path><path d="M312.6 520c-1.1 0-1.6-0.5-2.2-1.1l-26.2-31.7h-63.9c-25.7 0-46.4-20.8-46.4-46.4v-22.4c0-1.6 1.1-2.7 2.7-2.7s2.7 1.1 2.7 2.7v22.4c0 22.4 18.6 41 41 41h65.5c0.5 0 1.6 0.5 2.2 1.1l24.6 30 25.7-30c0.5-0.5 1.1-1.1 2.2-1.1H406c22.4 0 41-18.6 41-41V348c0-22.4-18.6-41-41-41H220.3c-22.4 0-41 18.6-41 41v33.3c0 1.6-1.1 2.7-2.7 2.7s-2.7-1.1-2.7-2.7V348c0-25.7 20.8-46.4 46.4-46.4H406c25.7 0 46.4 20.8 46.4 46.4v92.8c0 25.7-20.8 46.4-46.4 46.4h-64.4l-26.8 31.7c-0.6 0.6-1.1 1.1-2.2 1.1z m0 0" fill="#3A3B3B" p-id="3110"></path><path d="M474.2 517c0 13.6 11 24.6 24.6 24.6 13.6 0 24.6-11 24.6-24.6 0-13.6-11-24.6-24.6-24.6-13.6 0-24.6 11-24.6 24.6z m0 0" fill="#FFFFFF" p-id="3111"></path><path d="M498.8 495.2c12 0 21.8 9.8 21.8 21.8s-9.8 21.8-21.8 21.8S477 529 477 517s9.8-21.8 21.8-21.8m0-5.5c-15.3 0-27.3 12-27.3 27.3s12 27.3 27.3 27.3 27.3-12 27.3-27.3-12-27.3-27.3-27.3z m0 0" fill="#3A3B3B" p-id="3112"></path><path d="M691.9 518.3c0 13.6 11 24.6 24.6 24.6 13.6 0 24.6-11 24.6-24.6 0-13.6-11-24.6-24.6-24.6-13.6 0-24.6 11-24.6 24.6z m0 0" fill="#FFFFFF" p-id="3113"></path><path d="M716.5 496.4c12 0 21.8 9.8 21.8 21.8s-9.8 21.8-21.8 21.8-21.8-9.8-21.8-21.8c0-11.9 9.8-21.8 21.8-21.8m0-5.4c-15.3 0-27.3 12-27.3 27.3s12 27.3 27.3 27.3 27.3-12 27.3-27.3-12-27.3-27.3-27.3z m0 0" fill="#3A3B3B" p-id="3114"></path><path d="M257.5 656h4.9v3.9c0 2.6 2.3 4.9 4.9 4.9 2.6 0 4.9-2.3 4.9-4.9V656h4.9c2.6 0 4.9-2.3 4.9-4.9-0.1-2.7-2.2-4.8-4.9-4.9h-4.9v-3.9c-0.1-2.7-2.2-4.8-4.9-4.9-2.7 0.1-4.8 2.2-4.9 4.9v3.9h-4.9c-2.7 0.1-4.8 2.2-4.9 4.9 0 2.6 2.3 4.9 4.9 4.9zM619.7 761.5h6.2v5c0 3.3 2.9 6.2 6.2 6.2 3.3 0 6.2-2.9 6.2-6.2v-5h6.2c3.3 0 6.2-2.9 6.2-6.2-0.1-3.4-2.8-6.1-6.2-6.2h-6.2v-5c-0.1-3.4-2.8-6.1-6.2-6.2-3.4 0.1-6.1 2.8-6.2 6.2v5h-6.2c-3.4 0.1-6.1 2.8-6.2 6.2 0 3.3 2.9 6.2 6.2 6.2zM900.4 296.2c-11.1 0-20 9.1-20 20 0 11.1 9.1 20 20 20s20-9.1 20-20-8.9-20-20-20z m0 32.4c-3.2 0-6.3-1.3-8.6-3.6s-3.6-5.4-3.6-8.6c0-3.2 1.3-6.3 3.6-8.6s5.4-3.6 8.6-3.6c3.2 0 6.3 1.3 8.6 3.6s3.6 5.4 3.6 8.6c0 6.5-5.5 12-12.2 12.2zM135.3 246.5c-13.7 0-24.9 11.1-24.9 24.9 0 13.7 11.1 24.9 24.9 24.9 13.7 0 24.9-11.1 24.9-24.9 0-13.8-11.2-24.9-24.9-24.9z m12.1 37.2c-3.2 3.2-7.6 5-12.1 5-9.6 0-17.1-7.5-17.1-17.1 0-4.5 1.8-8.9 5-12.1 3.2-3.2 7.6-5 12.1-5s8.9 1.8 12.1 5c3.2 3.2 5 7.6 5 12.1s-1.8 8.9-5 12.1zM920.1 493.6h9.6v8.5c0 2.1 1.8 3.9 3.9 3.9 2.1 0 3.9-1.8 3.9-3.9v-8.5h9.6c2.1 0 3.9-1.8 3.9-3.9-0.1-2.1-1.8-3.8-3.9-3.9h-9.6v-8.6c-0.1-2.1-1.8-3.8-3.9-3.9-2.1 0.1-3.8 1.8-3.9 3.9v8.6h-9.6c-2.1 0-3.8 1.8-3.9 3.9 0.1 2.1 1.9 3.9 3.9 3.9zM569.5 308.2h3.9v3.1c0 2.1 1.8 3.9 3.9 3.9 2.1 0 3.9-1.8 3.9-3.9v-3.1h3.9c2.1 0 3.9-1.8 3.9-3.9-0.1-2.1-1.8-3.8-3.9-3.9h-3.9v-3.1c-0.1-2.1-1.8-3.8-3.9-3.9-2.1 0.1-3.8 1.8-3.9 3.9v3.1h-3.9c-2.1 0.1-3.8 1.8-3.9 3.9 0 2.1 1.8 3.9 3.9 3.9z" fill="#3A3A3B" p-id="3115"></path></svg>