<?xml version="1.0" standalone="no"?><!DOCTYPE svg PUBLIC "-//W3C//DTD SVG 1.1//EN" "http://www.w3.org/Graphics/SVG/1.1/DTD/svg11.dtd"><svg t="1675934467859" class="icon" viewBox="0 0 1024 1024" version="1.1" xmlns="http://www.w3.org/2000/svg" p-id="16053" xmlns:xlink="http://www.w3.org/1999/xlink" width="128" height="128"><path d="M1023.984 512l-77.592-116.402 9-139.59-125.402-62.03-61.998-125.37-139.59 8.998L512 0.016l-116.372 77.59-139.62-8.998-61.998 125.37-125.374 62.03 9 139.59L0.016 512l77.62 116.372-9 139.62 125.374 61.998 61.998 125.374 139.62-9L512 1023.984l116.402-77.62 139.59 9 62.03-125.374 125.37-61.998-9-139.62z" fill="#5D9CEC" p-id="16054"></path><path d="M320.6 567.342l-75.936-123.622h-41.218v184.526h39.156v-123.87l76.466 123.87h40.436V443.72H320.6zM449.94 548.936h90.214v-31.874H449.94v-40.186h98.246V443.72h-138.434v184.526h140.246v-33.936H449.94zM780.678 443.72l-30.592 126.996-31.904-126.996h-38.094l-32.406 125.434-29.53-125.434h-40.716l48.998 184.526h41.216l31.094-125.964 31.626 125.964h40.434l49.78-184.526z" fill="#F5F7FA" p-id="16055"></path></svg>