<?xml version="1.0" standalone="no"?><!DOCTYPE svg PUBLIC "-//W3C//DTD SVG 1.1//EN" "http://www.w3.org/Graphics/SVG/1.1/DTD/svg11.dtd"><svg t="1675934531189" class="icon" viewBox="0 0 1024 1024" version="1.1" xmlns="http://www.w3.org/2000/svg" p-id="18522" xmlns:xlink="http://www.w3.org/1999/xlink" width="128" height="128"><path d="M200.341264 578.804481h623.273726a133.558656 133.558656 0 0 1 0 267.117312H200.341264a133.558656 133.558656 0 0 1 0-267.117312z m0 89.039104a44.519552 44.519552 0 0 0 0 89.039104h623.273726a44.519552 44.519552 0 0 0 0-89.039104H200.341264z" fill="#FFBD06" p-id="18523"></path><path d="M200.341264 756.882689h623.273726a133.558656 133.558656 0 0 1 0 267.117311H200.341264a133.558656 133.558656 0 0 1 0-267.117311z m0 89.039104a44.519552 44.519552 0 0 0 0 89.039103h623.273726a44.519552 44.519552 0 0 0 0-89.039103H200.341264z" fill="#4D84DB" p-id="18524"></path><path d="M712.316111 200.38829h-178.078208A289.377087 289.377087 0 0 0 244.860816 489.765378a44.519552 44.519552 0 0 0 89.039104 0 200.337983 200.337983 0 0 1 200.337983-200.337984h178.078208a44.519552 44.519552 0 0 0 0-89.039104z" fill="#E01313" p-id="18525"></path><path d="M675.008726 244.907842l-151.811672 170.777001a44.519552 44.519552 0 1 0 66.55673 59.121965l178.078208-200.337983a44.519552 44.519552 0 0 0 0-59.166485l-178.078208-200.337983a44.519552 44.519552 0 1 0-66.51221 59.211004l151.811672 170.732481z" fill="#E01313" p-id="18526"></path></svg>