<?xml version="1.0" standalone="no"?><!DOCTYPE svg PUBLIC "-//W3C//DTD SVG 1.1//EN" "http://www.w3.org/Graphics/SVG/1.1/DTD/svg11.dtd"><svg t="1675934506988" class="icon" viewBox="0 0 1191 1024" version="1.1" xmlns="http://www.w3.org/2000/svg" p-id="17397" xmlns:xlink="http://www.w3.org/1999/xlink" width="148.875" height="128"><path d="M95.124898 686.252041H16.615264a16.615264 16.615264 0 0 1 0-33.230528h78.509634a16.615264 16.615264 0 0 1 0 33.230528z" fill="#50FBFF" p-id="17398"></path><path d="M55.877261 725.499677a16.586543 16.586543 0 0 1-16.615263-16.600903V630.432222a16.615264 16.615264 0 1 1 33.216167 0v78.509634A16.586543 16.586543 0 0 1 55.877261 725.499677z" fill="#50FBFF" p-id="17399"></path><path d="M1086.152862 807.340981m-29.582924 0a29.582924 29.582924 0 1 0 59.165849 0 29.582924 29.582924 0 1 0-59.165849 0Z" fill="#FE7E00" p-id="17400"></path><path d="M1007.729392 918.994979m-17.591788 0a17.591788 17.591788 0 1 0 35.183575 0 17.591788 17.591788 0 1 0-35.183575 0Z" fill="#FE7E00" p-id="17401"></path><path d="M1126.76476 612.553221m-64.651614 0a64.651614 64.651614 0 1 0 129.303228 0 64.651614 64.651614 0 1 0-129.303228 0Z" fill="#FEDF1D" p-id="17402"></path><path d="M642.768014 548.993016m-441.805178 0a441.805178 441.805178 0 1 0 883.610356 0 441.805178 441.805178 0 1 0-883.610356 0Z" fill="#FEDB03" p-id="17403"></path><path d="M864.180406 125.914117a476.601015 476.601015 0 0 1 98.643255 290.960985c0 264.422517-214.361316 478.783833-478.783833 478.783833a476.572294 476.572294 0 0 1-283.076992-92.69795c87.499397 114.15275 225.189241 187.837209 380.140577 187.837209 264.436878 0 478.798194-214.361316 478.798194-478.798194 0-158.498415-77.07357-298.945502-195.721201-386.085883z" fill="#FC8704" p-id="17404"></path><path d="M103.410989 578.446695a33.216167 33.216167 0 0 1-33.101282-30.947186c-0.789835-11.718285-1.220655-23.594536-1.220654-35.499509a515.417833 515.417833 0 0 1 4.896979-71.013379 33.216167 33.216167 0 0 1 65.800466 9.14773 450.134351 450.134351 0 0 0-4.308193 61.865649q0 15.624379 1.048327 30.947185a33.216167 33.216167 0 0 1-30.774858 35.427706c-0.804196 0.043082-1.56531 0.071803-2.340785 0.071804z" fill="#27233A" p-id="17405"></path><path d="M581.089053 1024A512.172328 512.172328 0 0 1 96.9487 678.942473a33.216167 33.216167 0 0 1 62.799091-21.67021 445.783076 445.783076 0 0 0 421.341262 300.295403c245.696239 0 445.567666-199.885788 445.567666-445.567666S826.799652 66.446695 581.089053 66.446695a446.285698 446.285698 0 0 0-389.604241 229.167138 33.216167 33.216167 0 1 1-58.045719-32.311446A512.746753 512.746753 0 0 1 581.089053 0c282.315878 0 512 229.770286 512 512S863.419292 1024 581.089053 1024z" fill="#27233A" p-id="17406"></path><path d="M799.126693 550.213671a33.173085 33.173085 0 0 1-23.494011-9.722156L581.089053 345.933526 386.574145 540.491515a33.220475 33.220475 0 0 1-46.973663-46.988023l218.02328-218.037641c12.450677-12.450677 34.465543-12.450677 46.973663 0l218.008919 218.037641a33.216167 33.216167 0 0 1-23.479651 56.710179z" fill="#27233A" p-id="17407"></path><path d="M581.089053 758.241943a33.216167 33.216167 0 0 1-33.216167-33.216167V298.959863a33.230528 33.230528 0 1 1 66.446694 0v426.094635A33.216167 33.216167 0 0 1 581.089053 758.241943z" fill="#27233A" p-id="17408"></path></svg>