<?xml version="1.0" standalone="no"?><!DOCTYPE svg PUBLIC "-//W3C//DTD SVG 1.1//EN" "http://www.w3.org/Graphics/SVG/1.1/DTD/svg11.dtd">
<svg t="1598973941116" class="icon" viewBox="0 0 1024 1024" version="1.1" xmlns="http://www.w3.org/2000/svg"
     p-id="31922"
     width="200" height="200"><defs><style type="text/css"></style></defs><path d="M351.36 390.592l-29.76 176.512h60.608l-29.632-176.512zM700.352 406.272c-3.392-9.28-8.064-15.36-14.272-18.304a61.312 61.312 0 0 0-25.088-4.352h-21.504v259.84h21.568a58.24 58.24 0 0 0 25.088-4.416c6.336-2.816 11.008-9.024 14.272-18.304 3.328-9.344 5.504-22.528 6.4-39.616 1.152-17.152 1.472-39.552 1.472-67.52 0-28.032-0.576-50.496-1.472-67.648-0.96-17.152-3.008-30.336-6.464-39.68z" fill="#FF9600" p-id="31923"></path><path d="M512 3.2a508.8 508.8 0 1 0 0.128 1017.728A508.8 508.8 0 0 0 512 3.2zM406.08 721.472l-11.008-72.896H308.864l-11.136 72.896H184.128l99.648-416h136.32l101.376 416H406.08z m411.136-129.664a193.664 193.664 0 0 1-15.936 66.368 108.544 108.544 0 0 1-39.296 46.272c-17.472 11.328-41.856 17.152-73.408 17.152H531.2V305.472h157.312c31.552 0 55.936 5.76 73.344 17.152 17.472 11.456 30.656 26.752 39.36 46.08 8.704 19.2 14.016 41.344 15.936 66.368 1.92 25.088 2.944 51.2 2.944 78.4 0.064 27.264-0.96 53.248-2.88 78.336z" fill="#FF9600" p-id="31924"></path></svg>