<?xml version="1.0" standalone="no"?><!DOCTYPE svg PUBLIC "-//W3C//DTD SVG 1.1//EN" "http://www.w3.org/Graphics/SVG/1.1/DTD/svg11.dtd">
<svg t="1607101418950" class="icon" viewBox="0 0 1024 1024" version="1.1" xmlns="http://www.w3.org/2000/svg" p-id="6241"
     width="128" height="128"><defs><style type="text/css"></style></defs><path d="M512 512m-487.333112 0a487.333112 487.333112 0 1 0 974.666224 0 487.333112 487.333112 0 1 0-974.666224 0Z" fill="#F0CC71" p-id="6242"></path><path d="M241.955217 656.526285a123.425325 204.636402 84.025 1 0 407.049393-42.603053 123.425325 204.636402 84.025 1 0-407.049393 42.603053Z" fill="#FFFFFF" p-id="6243"></path><path d="M648.670675 233.98097c-12.960568 0-23.327811 5.180592-25.909018 18.14116-2.599385 10.361183 7.773917 23.321751 18.14116 25.902959 41.456852 7.773917 124.370556 20.734485 145.105041 139.930509 2.593325 12.960568 12.954509 25.909018 25.909018 20.728426 10.361183-2.587266 20.734485-7.767858 15.541775-36.270202-20.722367-116.614817-114.009373-163.25226-178.787976-168.432852z m38.869585 176.20677c-5.180592-20.728426-25.909018-44.056237-49.236828-46.643503-7.767858 0-12.960568 2.587266-15.541775 10.367242-2.599385 7.767858 2.587266 15.547834 10.361183 18.129042 15.547834 2.599385 23.327811 15.547834 25.915077 25.915077 0 0 2.593325 7.779976 10.367243 10.367242 7.767858 2.593325 20.722367-2.581207 18.1351-18.1351z" fill="#E79016" p-id="6244"></path><path d="M752.312805 420.548923c-7.773917-54.41742-46.637444-98.467598-103.64213-108.83484-18.135101-2.587266-25.909018 10.367243-25.909018 20.728426s7.773917 18.14116 20.728426 20.734485c36.27626 10.361183 59.604071 25.909018 67.377988 67.371929 2.587266 12.960568 12.954509 20.734485 20.722367 20.734485 12.94845 0 20.722367-7.773917 20.722367-20.734485z" fill="#E79016" p-id="6245"></path><path d="M630.535574 508.661396h-7.773917s0-2.599385 2.587266-7.779976c7.773917-15.541775 18.14116-49.230769-5.180592-67.371929-12.94845-12.960568-75.139787-20.728426-137.325065 20.734485-2.599385 2.587266-7.773917 7.773917-10.373302 5.174533-2.587266 0-2.587266-5.174533-2.587266-10.361184-2.593325-33.695053 23.321751-119.202083-44.056236-111.428165-72.552521 12.954509-171.026178 124.382675-196.935196 178.806154-101.054864 191.748544 44.050178 269.487716 183.980687 274.668307 152.872899 5.186651 305.763976-80.332497 326.498461-194.347929 12.942391-75.145846-77.745231-90.687621-108.83484-88.094296z m18.135101 119.189965c-7.767858 75.145846-116.608757 134.749917-235.798722 132.162651-108.840899-2.593325-183.980686-59.598012-171.026178-124.382675 12.954509-64.778604 101.054864-119.189964 207.296379-124.376615 114.015432-7.786036 207.302438 44.044118 199.528521 116.596639z" fill="#D6282A" p-id="6246"></path><path d="M431.000994 570.846675c-51.824095 2.599385-98.455479 44.056237-106.235456 90.699739-5.186651 49.230769 28.508402 90.69368 82.919764 90.693681 54.41742 0 106.247574-41.462911 111.422106-95.874273 5.174533-49.248947-33.688994-88.112473-88.106414-85.519147z m-41.456852 142.517775c-18.14116 0-28.502343-12.954509-25.909018-31.095669 0-18.14116 15.541775-33.688994 33.682935-33.688994s28.508402 12.960568 28.508403 31.095669c-2.593325 18.14116-20.728426 33.688994-36.28232 33.688994z m41.456852-51.818036c-5.174533 0-10.355124-5.180592-7.767858-10.367242 0-5.180592 5.186651-10.367243 10.361184-10.367243 5.186651 0 10.373302 5.180592 7.779976 10.367243 0 7.773917-5.186651 10.367243-10.373302 10.367242z" fill="#050001" p-id="6247"></path></svg>