<?xml version="1.0" standalone="no"?><!DOCTYPE svg PUBLIC "-//W3C//DTD SVG 1.1//EN" "http://www.w3.org/Graphics/SVG/1.1/DTD/svg11.dtd">
<svg t="1598973721216" class="icon" viewBox="0 0 1024 1024" version="1.1" xmlns="http://www.w3.org/2000/svg"
     p-id="14260"
     width="200" height="200"><defs><style type="text/css"></style></defs><path d="M621.60564 590.8v406.4h-228V589.6l11.2 6c19.2 10.4 42 13.2 62 5.2 10.4-4 20.8-10.8 28-22 0 0 0.4-0.4 0.4-0.8l0.4 0.4 12 23.2 12.4-24.8 1.6-2.8s0.8 1.2 2.4 2.8c9.2 9.2 43.2 38.4 82.8 20.4 5.6-2 10.4-4.4 14.8-6.4zM512.80564 459.2c2.8 4 5.2 8.4 6.4 12.8-10.8 2-22-0.4-31.2-6.4L368.00564 394.4 349.60564 372l-0.4-0.4-0.4-0.4c-5.2-6-9.6-13.2-12.4-20.8-2.8-7.2-4-14.4-4.4-22-0.4-37.6 31.6-68.4 69.6-68.4h37.2l14 65.2 15.2 71.6 13.2 18.8 31.6 43.6zM682.80564 360.8v18.4l-148.8 87.2 5.6-19.6 27.2-118.4 12-51.6 0.8-2.4 0.4-1.2 2.8-12.8h4c25.2 1.2 49.2 11.6 66.8 29.2 5.2 5.2 9.6 11.2 14 17.6 0.4 0.8 1.2 1.6 1.6 2.8 8.8 15.2 13.6 32.8 13.6 50.8z" fill="#E0E0E0" p-id="14261"></path><path d="M525.20564 311.6l14.4 135.2-31.2 111.2-8.8-32c1.6-1.2 3.2-2 4.8-3.6 11.2-9.2 16.8-22.4 16.8-36 0-9.6-2.8-19.2-8.8-27.2l-31.2-43.6 11.2-104-9.6-26.4-7.2-20.4h66l-7.2 20.4-9.2 26.4z" fill="#F68F6F" p-id="14262"></path><path d="M200.40564 252c-5.2 0-10-0.4-15.2-1.2-60.8-8.4-103.6-64.4-95.2-125.2 7.2-54.8 54.8-96 110-96 4.8 0 10 0.4 15.2 1.2 29.6 4 55.6 19.2 73.6 42.8 18 23.6 25.6 52.8 21.6 82.4-7.6 54.4-54.8 96-110 96zM200.00564 42.4c-48.8 0-90.4 36.4-97.2 85.2-7.2 53.6 30.4 103.2 84 110.4 4.4 0.4 8.8 0.8 13.2 0.8 48.8 0 90.4-36.4 97.2-85.2 3.6-26-3.2-51.6-19.2-72.8-16-20.8-38.8-34.4-64.8-37.6-4.4-0.4-8.8-0.8-13.2-0.8z" fill="#4A555F" p-id="14263"></path><path d="M200.40564 223.6c-3.6 0-7.6-0.4-11.2-0.8-22-2.8-41.6-14.4-54.8-32-13.6-17.6-19.2-39.6-16.4-61.2 5.6-40.8 40.8-72 82-72 3.6 0 7.6 0.4 11.2 0.8 22 2.8 41.6 14.4 54.8 32 13.6 17.6 19.2 39.6 16.4 61.2-5.6 41.2-40.8 72-82 72z" fill="#FFD552" p-id="14264"></path><path d="M248.40564 996.8h-13.2v-244l32.4-240.4L136.00564 448c-22.4-10.8-39.2-30.4-46.4-53.2-6.4-20-4.8-40.8 4.8-58.4 12.8-24 37.6-38 66.4-38 16.8 0 33.6 4.8 48 14.4l77.6 48c-2.8-56-44.8-102-101.6-109.6-31.2-4.4-62 4-86.8 22.8-24.8 18.8-40.8 46.4-45.2 77.6l-39.2 289.6c-2.8 20.8 2.8 41.6 15.6 58.4 12.8 16.8 31.2 27.6 52.4 30.4l1.2 0.4 28.8 9.2v257.6h-13.2v-248l-19.2-6.4c-24-3.6-45.6-16-60.4-35.2C4.00564 688-2.39436 664 0.80564 639.6L40.00564 349.6c4.8-34.4 22.4-65.2 50.4-86.4 27.6-21.2 62-30 96.4-25.6 67.2 9.2 115.6 66.8 112.8 134.8l-0.4 11.6-97.2-60c-12.8-8-26.8-12.4-41.2-12.4-24 0-44.4 11.6-54.8 31.2-8 14.4-9.2 31.6-4 48.4 6 19.2 20.8 36 39.6 45.2l140.8 68.4-33.6 249.6v242.4z" fill="#4A555F" p-id="14265"></path><path d="M126.80564 996.8V728l-41.2-13.2-2-0.4c-16.8-2.4-32-10.8-42-24.4-10.4-13.6-14.8-30.4-12.4-47.2L68.00564 353.6c6.8-50.4 50.4-88.4 101.2-88.4 4.4 0 9.2 0.4 14 0.8 55.6 7.6 95.2 59.2 87.6 114.8l-50.4 371.6v244.8H126.80564z" fill="#E0E0E0" p-id="14266"></path><path d="M436.80564 588c-10 0-20.4-2.4-29.2-7.2L136.00564 448c-22.4-11.2-39.2-30.4-46.4-53.2-6.4-20-4.8-40.8 4.8-58.4 12.8-24 37.6-38 66.4-38 16.8 0 33.6 4.8 48 14.4l261.6 162c28 19.6 36 58 17.6 86-11.2 16.8-30.4 27.2-51.2 27.2z m-276-276.4c-24 0-44.4 11.6-54.8 31.2-8 14.4-9.2 31.6-4 48.4 6 19.2 20.8 36 39.6 45.2l272 132.4c7.2 4 15.2 6 23.2 6 16.4 0 31.2-8 40-21.6 14.4-22 8.4-52.4-13.6-68L202.00564 324c-12.8-8.4-26.8-12.4-41.2-12.4z" fill="#4A555F" p-id="14267"></path><path d="M436.80564 559.6c-5.6 0-10.8-1.2-16-4l-0.8-0.4-272-132.4c-15.2-7.6-26.8-20.8-31.6-36.4-4-12.8-3.2-25.6 2.8-36.4 8-14.4 23.2-23.2 41.6-23.2 11.2 0 22.8 3.6 32.8 10l261.6 161.6c15.2 10.8 19.2 31.6 9.2 46.8-6 8.8-16.4 14.4-27.6 14.4zM584.80564 559.6c-11.2 0-21.6-5.6-27.6-14.8-10-15.2-5.6-36 9.2-46.8L828.00564 336.8c10.4-6.8 21.6-10 33.2-10 18 0 33.6 8.8 41.6 23.2 6 10.8 6.8 23.6 2.8 36.4-4.8 15.6-16.4 28.8-32 36.4l-272.4 132.8c-5.2 2.4-10.8 4-16.4 4z" fill="#E0E0E0" p-id="14268"></path><path d="M823.60564 252c-55.2 0-102.8-41.6-110-96.4-4-29.6 3.6-58.8 21.6-82.4 18-23.6 44-38.8 73.6-42.8 4.8-0.8 10-1.2 15.2-1.2 55.2 0 102.8 41.6 110 96.4 8.4 60.8-34.4 116.8-95.2 125.2-5.2 0.8-10 1.2-15.2 1.2z m0.4-209.6c-4.4 0-8.8 0.4-13.2 0.8-26 3.6-49.2 16.8-64.8 37.6-16 20.8-22.8 46.8-19.2 72.8 6.4 48.4 48.4 85.2 97.2 85.2 4.4 0 8.8-0.4 13.2-0.8 53.6-7.2 91.2-56.8 84-110.4-6.8-48.4-48.4-85.2-97.2-85.2z" fill="#4A555F" p-id="14269"></path><path d="M823.60564 223.6c-41.2 0-76.4-30.8-82-72-2.8-22 2.8-43.6 16.4-61.2s32.8-28.8 54.8-32c3.6-0.4 7.6-0.8 11.2-0.8 41.2 0 76.4 30.8 82 72 2.8 22-2.8 43.6-16.4 61.2s-32.8 28.8-54.8 32c-3.6 0.8-7.2 0.8-11.2 0.8z" fill="#FFD552" p-id="14270"></path><path d="M925.60564 996.8h-13.2v-257.6l30-9.6c20.8-2.8 39.6-13.6 52.4-30.4 12.8-16.8 18.4-37.6 15.2-58.4l-39.2-289.6c-4-31.2-20.4-58.8-45.2-77.6-24.8-18.8-55.6-27.2-86.8-22.8-56 7.6-98 53.2-101.2 108.4l75.2-46.8c14.8-9.2 31.2-14.4 48-14.4 28.8 0 53.6 14.4 66.4 38 9.6 17.6 11.2 38.4 4.8 58.4-7.2 22.8-24 42-46.4 53.2l-129.6 64 32.8 242.4v243.2h-13.2v-242.8l-34-250.4 138.8-67.6c18.8-9.2 33.6-26 39.6-45.2 5.2-16.8 4-34-4-48.4-10.4-19.6-31.2-31.2-54.8-31.2-14.4 0-28.4 4.4-41.2 12.4l-95.2 58.8-0.4-11.2c-2.4-67.2 46.4-124.4 112.8-133.2 34.4-4.8 68.8 4.4 96.4 25.6 27.6 21.2 45.6 51.6 50 86.4l39.2 289.6c3.2 24.4-3.2 48.4-18 68s-36 32-60.4 35.2l-19.2 6.4v247.2z" fill="#4A555F" p-id="14271"></path><path d="M803.60564 996.8V752l-50.4-371.6c-7.6-55.6 31.6-107.2 87.6-114.8 4.4-0.8 9.2-0.8 14-0.8 50.8 0 94.4 38 101.2 88.4l39.2 289.6c2.4 16.8-2 33.6-12.4 47.2-10.4 13.6-25.2 22.4-42 24.4l-2 0.4-41.2 13.2v268.8h-94z" fill="#E0E0E0" p-id="14272"></path><path d="M925.60564 996.8h-13.2v-257.6l30-9.6c20.8-2.8 39.6-13.6 52.4-30.4 12.8-16.8 18.4-37.6 15.2-58.4l-39.2-289.6c-4-31.2-20.4-58.8-45.2-77.6-24.8-18.8-55.6-27.2-86.8-22.8-56 7.6-98 53.2-101.2 108.4l75.2-46.8c14.8-9.2 31.2-14.4 48-14.4 28.8 0 53.6 14.4 66.4 38 9.6 17.6 11.2 38.4 4.8 58.4-7.2 22.8-24 42-46.4 53.2l-129.6 64 32.8 242.4v243.2h-13.2v-242.8l-34-250.4 138.8-67.6c18.8-9.2 33.6-26 39.6-45.2 5.2-16.8 4-34-4-48.4-10.4-19.6-31.2-31.2-54.8-31.2-14.4 0-28.4 4.4-41.2 12.4l-95.2 58.8-0.4-11.2c-2.4-67.2 46.4-124.4 112.8-133.2 34.4-4.8 68.8 4.4 96.4 25.6 27.6 21.2 45.6 51.6 50 86.4l39.2 289.6c3.2 24.4-3.2 48.4-18 68s-36 32-60.4 35.2l-19.2 6.4v247.2z" fill="#4A555F" p-id="14273"></path><path d="M803.60564 996.8V752l-50.4-371.6c-7.6-55.6 31.6-107.2 87.6-114.8 4.4-0.8 9.2-0.8 14-0.8 50.8 0 94.4 38 101.2 88.4l39.2 289.6c2.4 16.8-2 33.6-12.4 47.2-10.4 13.6-25.2 22.4-42 24.4l-2 0.4-41.2 13.2v268.8h-94z" fill="#E0E0E0" p-id="14274"></path><path d="M525.20564 311.6l14.4 135.2-31.2 111.2-8.8-32c1.6-1.2 3.2-2 4.8-3.6 11.2-9.2 16.8-22.4 16.8-36 0-9.6-2.8-19.2-8.8-27.2l-31.2-43.6 11.2-104-9.6-26.4-7.2-20.4h66l-7.2 20.4-9.2 26.4z" fill="#F68F6F" p-id="14275"></path><path d="M508.80564 244.8C448.80564 244.8 400.00564 196 400.00564 136s48.8-108.8 108.8-108.8S618.00564 76 618.00564 136s-49.2 108.8-109.2 108.8z m0-204.8c-52.8 0-96 42.8-96 96 0 52.8 42.8 96 96 96s96-42.8 96-96c0-52.8-43.2-96-96-96z" fill="#4A555F" p-id="14276"></path><path d="M508.80564 216.4c-44.4 0-80.4-36-80.4-80.4s36-80.4 80.4-80.4 80.4 36 80.4 80.4-36 80.4-80.4 80.4z" fill="#FFD552" p-id="14277"></path><path d="M365.20564 558h13.2v439.2h-13.2zM530.00564 318H488.00564l-21.2-59.6h84.8l-21.6 59.6z m-32.8-13.2h24l12-33.6h-47.6l11.6 33.6z" fill="#4A555F" p-id="14278"></path><path d="M533.20564 447.6l-13.6-129.6h-21.2L488.00564 416l-13.2-1.2 11.6-110h44.8l0.8 6 14 135.2zM449.20564 340.8l-23.6-109.2h45.2l19.2 54.4-40.8 54.8z m-7.2-96l14 65.2 19.6-26-14-39.2h-19.6zM570.00564 343.6l-42.4-57.6 19.2-54.4h48.8l-25.6 112zM542.40564 284l21.2 28.8 15.6-68H556.00564l-13.6 39.2z" fill="#4A555F" p-id="14279"></path><path d="M514.80564 559.6h-12.8l-8.8-32 2.8-7.2c1.2-0.8 2.4-1.6 4-2.8 9.2-7.6 14.4-18.8 14.4-30.8 0-8.4-2.8-16.8-7.6-23.6l-44.8-62.4-1.2-2.4-34-158.4 6.4-8h153.6l6.4 8.4-47.6 208-30.8 111.2z m-7.2-31.2l1.2 4.8 2-7.6c-0.8 0.4-1.2 1.2-2 1.6-0.4 0.8-0.8 0.8-1.2 1.2z m-33.6-134.4l44 61.2c3.6 4.8 6.4 10.4 8 16l7.2-26.4 46-200.4h-137.2l32 149.6z" fill="#4A555F" p-id="14280"></path><path d="M525.20564 311.6l14.4 135.2-31.2 111.2-8.8-32c1.6-1.2 3.2-2 4.8-3.6 11.2-9.2 16.8-22.4 16.8-36 0-9.6-2.8-19.2-8.8-27.2l-31.2-43.6 11.2-104-9.6-26.4-7.2-20.4h66l-7.2 20.4-9.2 26.4z" fill="#F68F6F" p-id="14281"></path><path d="M530.00564 318H488.00564l-21.2-59.6h84.8l-21.6 59.6z m-32.8-13.2h24l12-33.6h-47.6l11.6 33.6z" fill="#4A555F" p-id="14282"></path><path d="M533.20564 447.6l-13.6-129.6h-21.2L488.00564 416l-13.2-1.2 11.6-110h44.8l0.8 6 14 135.2zM449.20564 340.8l-23.6-109.2h45.2l19.2 54.4-40.8 54.8z m-7.2-96l14 65.2 19.6-26-14-39.2h-19.6zM570.00564 343.6l-42.4-57.6 19.2-54.4h48.8l-25.6 112zM542.40564 284l21.2 28.8 15.6-68H556.00564l-13.6 39.2z" fill="#4A555F" p-id="14283"></path><path d="M514.80564 559.6h-12.8l-8.8-32 2.8-7.2c1.2-0.8 2.4-1.6 4-2.8 9.2-7.6 14.4-18.8 14.4-30.8 0-8.4-2.8-16.8-7.6-23.6l-44.8-62.4-1.2-2.4-34-158.4 6.4-8h153.6l6.4 8.4-47.6 208-30.8 111.2z m-7.2-31.2l1.2 4.8 2-7.6c-0.8 0.4-1.2 1.2-2 1.6-0.4 0.8-0.8 0.8-1.2 1.2z m-33.6-134.4l44 61.2c3.6 4.8 6.4 10.4 8 16l7.2-26.4 46-200.4h-137.2l32 149.6z" fill="#4A555F" p-id="14284"></path><path d="M365.20564 558h13.2v439.2h-13.2z" fill="#4A555F" p-id="14285"></path><path d="M636.80564 558h13.2v439.2h-13.2z" fill="#4A555F" p-id="14286"></path><path d="M530.00564 318H488.00564l-21.2-59.6h84.8l-21.6 59.6z m-32.8-13.2h24l12-33.6h-47.6l11.6 33.6z" fill="#4A555F" p-id="14287"></path><path d="M533.20564 447.6l-13.6-129.6h-21.2L488.00564 416l-13.2-1.2 11.6-110h44.8l0.8 6 14 135.2z" fill="#4A555F" p-id="14288"></path><path d="M449.20564 340.8l-23.6-109.2h45.2l19.2 54.4-40.8 54.8z m-7.2-96l14 65.2 19.6-26-14-39.2h-19.6z" fill="#4A555F" p-id="14289"></path><path d="M570.00564 343.6l-42.4-57.6 19.2-54.4h48.8l-25.6 112zM542.40564 284l21.2 28.8 15.6-68H556.00564l-13.6 39.2z" fill="#4A555F" p-id="14290"></path><path d="M504.00564 736.4h13.2v260.4H504.00564z" fill="#4A555F" p-id="14291"></path><path d="M494.00564 536.4l-4.8-12c4-1.6 8-4 11.2-6.8 9.2-7.6 14.4-19.2 14.4-31.2 0-8.4-2.8-16.8-7.6-23.6l-85.2-118.4 10.8-7.6 85.2 118.4c6.4 9.2 10 20 10 31.2 0 16-6.8 30.8-19.2 41.2-4.4 3.6-9.6 6.4-14.8 8.8z" fill="#4A555F" p-id="14292"></path><path d="M650.00564 996.8h-13.2v-391.2l6.4-6.4h4c3.6 0 6.8-0.4 10.4-1.2 23.6-4.8 40.4-25.6 40.4-49.6v-19.2h13.2v19.2c0 30-21.6 56.4-50.8 62.4-3.2 0.8-6.8 1.2-10.4 1.2v384.8z" fill="#4A555F" p-id="14293"></path><path d="M346.00564 412.4L328.00564 390c-7.6-8.4-13.6-18.4-17.6-29.2-4-10.8-6-22-6-33.6 0-52.8 42.8-95.6 95.6-95.6h188l0.4 0.4c32.4 1.2 62.8 14.8 85.6 37.6 6.4 6.8 12.4 14 17.6 22l2.4 3.6c11.6 20 18 42.4 18 65.6v26.8h-13.2v-26.8c0-20.8-5.6-41.2-16-58.8-0.8-1.2-1.2-2-2-3.2-4.8-7.2-10-14-16-20-20.8-20.4-48-32.4-77.2-33.6h-188c-45.6 0-82.4 36.8-82.4 82.4 0 10 1.6 20 5.2 29.2s8.8 18 15.2 25.2L356.00564 404l-10 8.4z" fill="#4A555F" p-id="14294"></path><path d="M503.60564 531.6l-6.8-11.2c1.2-0.8 2.4-1.6 4-2.8 9.2-7.6 14.4-18.8 14.4-30.8 0-8.4-2.8-16.8-7.6-23.6l-85.2-118.4 10.8-7.6 85.2 118.4c6.4 9.2 10 20 10 31.2 0 16-6.8 30.8-19.2 41.2-2.4 1.2-4 2.4-5.6 3.6z" fill="#4A555F" p-id="14295"></path><path d="M587.60564 244.8h-153.6v-13.2h153.6l6 8.8-6-2z" fill="#4A555F" p-id="14296"></path><path d="M584.80564 588c-20.8 0-39.6-10.4-51.2-27.2-18.4-28-10.8-66.4 17.2-85.6l262-162c14.8-9.2 31.2-14.4 48-14.4 28.8 0 53.6 14.4 66.4 38 9.6 17.6 11.2 38.4 4.8 58.4-7.2 22.8-24 42-46.4 53.2l-272 132.4c-8.4 4.4-18.4 7.2-28.8 7.2z m276.4-276.4c-14.4 0-28.4 4.4-41.2 12.4l-262 162c-22 15.2-28 45.6-13.6 67.6 8.8 13.6 24 21.6 40 21.6 8 0 16-2 23.2-5.6l272.4-132.8c18.8-9.6 33.6-26 39.6-45.2 5.2-16.8 4-34-4-48.4-10-20-30.4-31.6-54.4-31.6z" fill="#4A555F" p-id="14297"></path><path d="M495.20564 578l0.4 0.4h-0.8c0 0.4 0.4 0 0.4-0.4z" fill="#E0E0E0" p-id="14298"></path><path d="M521.60564 574.4s0.8 1.2 2.4 2.8l-4 0.4 1.6-3.2z" fill="#E0E0E0" p-id="14299"></path></svg>