<?xml version="1.0" standalone="no"?><!DOCTYPE svg PUBLIC "-//W3C//DTD SVG 1.1//EN" "http://www.w3.org/Graphics/SVG/1.1/DTD/svg11.dtd">
<svg t="1598973764834" class="icon" viewBox="0 0 1024 1024" version="1.1" xmlns="http://www.w3.org/2000/svg"
     p-id="16901"
     width="200" height="200"><defs><style type="text/css"></style></defs><path d="M175.9 440.2c0 194.5 150.4 295.9 336.1 295.9 184.1 0 333.9-99.1 336.1-291.2 0-14.5-1.1-29.5-2.2-44-1.7-16.2-4.4-31.8-8.3-46.9-35.4 4.1-68.6 12.2-101.2 23.2-34.8 11.6-56.9 41.7-86.2 64.8-33.7-81-76.3-153.4-139.3-210.1-63.6 57.9-106.2 130.2-140.4 213-48.7-65.4-113.9-82.8-184.1-90.9-6.7 27.8-10.5 56.1-10.5 86.2z" fill="#FFBE90" p-id="16902"></path><path d="M899.8 264c-2.8-23.8-6.7-47.6-10.6-71.9C811 196 737.3 206 672.5 245.8c-23.5-32.6-46.4-66.4-70.9-97.9-25.1-32.6-56.4-59.2-89.9-84.1-66.5 49.8-118.4 110.6-157.5 184.2-32.4-22.1-68.7-33.2-105.6-41.5-37.4-8.3-74.8-13.3-113.4-13.8-0.6 2.8-1.1 4.4-1.1 6.1-15.6 81.9-20.1 163.7-5 245.6 26.8 145.5 111.1 243.4 250.8 293.7 31.8 11.6 65.9 16.6 101.6 24.9V928.4c0 13.8 6.1 23.8 19 29.3 11.7 5 26.2 2.8 33.5-7.7 5-7.2 8.4-17.1 8.4-25.4 0.6-52 0.6-104 0.6-155.4 0-2.8 0.6-5.5 0.6-8.9 10.6-1.1 21.2-2.2 31.3-3.9 146.9-21 280.4-128.9 316.1-289.3 15-67.5 16.1-135 8.8-203.1zM825 503c-44.1 110.6-129 175.9-245.2 199.1-101.6 20.5-195.5-2.2-278.1-63.6-74.3-55.3-112.3-132.2-124-222.4-6.7-53.7-7.3-106.8 0-159.9 0.6-2.2 1.1-5 2.2-8.3 72 7.7 140.2 23.8 189.9 87.4 34.6-79.1 78.2-148.2 142.4-204.1 63.7 54.2 106.7 123.3 140.7 200.8 29-22.1 51.4-50.9 87.1-62 34.1-11.1 68.1-18.8 105.6-22.7 1.1 10 2.8 19.4 3.9 28.2 6.8 77.6 4 155-24.5 227.5z" fill="#FF6B00" p-id="16903"></path><path d="M620.4 874.7c0-16.1 9.1-25.8 21.2-33.8 61.2-43 128.1-75.2 202.4-91.9 26.9-5.9 54.9-9.7 82.9-12.4 20-2.1 31.5 8.1 33.2 24.2s-10.3 28.5-29.2 32.2c-37.2 7-74.9 14.5-111.5 22.6-57.2 12.9-102.9 45.1-145.8 80.6-17.7 15-45.2 7-50.9-14-1.8-2.7-1.8-5.9-2.3-7.5zM101.7 736.1c65.8 5.9 128.7 22.6 187 51.6 32 16.1 62.3 34.9 93.2 53.7 13.7 8.6 23.4 20.4 20 37.6-4.6 24.2-30.3 32.8-50.9 17.7-24-17.7-48.6-35.5-73.8-51.6-41.2-25.8-89.8-34.9-137.2-44.6-16-3.2-32-5.4-48-8.1-19.4-3.2-29.7-15-28-32.8 1.1-14.5 13.2-23.1 32.6-23.6 1.7 0.1 3.4 0.1 5.1 0.1z" fill="#FF6B00" p-id="16904"></path></svg>