<?xml version="1.0" standalone="no"?><!DOCTYPE svg PUBLIC "-//W3C//DTD SVG 1.1//EN" "http://www.w3.org/Graphics/SVG/1.1/DTD/svg11.dtd">
<svg t="1607101167568" class="icon" viewBox="0 0 1024 1024" version="1.1" xmlns="http://www.w3.org/2000/svg" p-id="1910"
     width="128" height="128"><defs><style type="text/css"></style></defs><path d="M512 512m-512 0a512 512 0 1 0 1024 0 512 512 0 1 0-1024 0Z" fill="#2DC100" p-id="1911"></path><path d="M637.946524 417.996435c-59.322638 2.737968-110.431373 20.991087-152.413547 61.14795-41.982175 41.069519-61.14795 91.265597-56.58467 153.326203-22.816399-2.737968-43.807487-6.388592-65.71123-8.213904-7.301248-0.912656-16.427807 0-21.903744 3.650624-20.991087 11.864528-40.156863 24.641711-63.885918 39.244207 4.56328-19.165775 7.301248-36.506239 11.864528-52.934046 3.650624-11.864528 1.825312-18.253119-9.12656-26.467023-71.187166-50.196078-101.304813-125.033868-78.488413-202.609626 20.991087-71.187166 71.187166-114.994652 140.549019-136.898396 94.003565-31.030303 200.784314 0.912656 257.368984 75.750446 22.816399 27.379679 35.593583 58.409982 38.331551 94.003565z m-271.971479-23.729055c0.912656-13.68984-11.864528-26.467023-26.467024-27.379679-14.602496 0-27.379679 10.951872-27.379679 25.554367 0 14.602496 10.951872 26.467023 25.554367 27.379679 15.515152 0 27.379679-11.864528 28.292336-25.554367z m142.374331-27.379679c-14.602496 0-26.467023 12.777184-26.467023 26.467023 0 14.602496 12.777184 26.467023 27.379679 26.467023s26.467023-11.864528 26.467023-26.467023c-0.912656-15.515152-12.777184-27.379679-27.379679-26.467023z" fill="#FFFFFF" p-id="1912"></path><path d="M771.194296 786.709447c-19.165775-8.213904-35.593583-20.991087-53.846702-22.816399-18.253119-1.825312-37.418895 8.213904-56.584671 10.951872-58.409982 6.388592-110.431373-10.039216-153.326203-50.196079-81.226381-75.750446-70.27451-190.745098 24.641711-252.805704 83.964349-54.759358 207.172906-36.506239 265.582888 39.244207 52.02139 66.623886 45.632799 155.151515-17.340463 210.823529-18.253119 16.427807-24.641711 29.204991-12.777184 51.108735 1.825312 3.650624 1.825312 8.213904 3.650624 13.689839zM557.632799 580.449198c11.864528 0 21.903743-9.12656 21.903743-20.991087 0.912656-12.777184-9.12656-22.816399-21.903743-22.8164s-22.816399 10.951872-21.903744 22.8164c0 10.951872 10.039216 20.991087 21.903744 20.991087z m137.811051-43.807487c-11.864528 0-20.991087 9.12656-21.903743 20.991088-0.912656 12.777184 9.12656 22.816399 21.903743 22.816399 11.864528 0 20.991087-9.12656 21.903744-20.991087 0-12.777184-10.039216-22.816399-21.903744-22.8164z" fill="#FFFFFF" p-id="1913"></path></svg>