<?xml version="1.0" standalone="no"?><!DOCTYPE svg PUBLIC "-//W3C//DTD SVG 1.1//EN" "http://www.w3.org/Graphics/SVG/1.1/DTD/svg11.dtd">
<svg t="1598974021262" class="icon" viewBox="0 0 1024 1024" version="1.1" xmlns="http://www.w3.org/2000/svg"
     p-id="36234"
     width="200" height="200"><defs><style type="text/css"></style></defs><path d="M554.268444 46.990222l427.008 474.453334a28.444444 28.444444 0 0 1-21.162666 47.445333H63.886222a28.444444 28.444444 0 0 1-21.162666-47.445333L469.731556 46.990222a56.888889 56.888889 0 0 1 84.536888 0z" fill="#F5A623" p-id="36235"></path><path d="M284.444444 910.222222m56.888889 0l341.333334 0q56.888889 0 56.888889 56.888889l0 0q0 56.888889-56.888889 56.888889l-341.333334 0q-56.888889 0-56.888889-56.888889l0 0q0-56.888889 56.888889-56.888889Z" fill="#F5A623" p-id="36236"></path><path d="M227.555556 512h568.888888v284.444444a56.888889 56.888889 0 0 1-56.888888 56.888889H284.444444a56.888889 56.888889 0 0 1-56.888888-56.888889V512z" fill="#F5A623" p-id="36237"></path></svg>